<svg xmlns="http://www.w3.org/2000/svg" style="display:none;">
  <symbol id="iconAws" viewBox="0 0 1052 1052">
    <path d="M297.02 340.83c0 13 1.4 23.5 3.87 31.2 2.81 7.74 6.33 16.18 11.25 25.31 1.75 2.77 2.46 5.58 2.46 8.04 0 3.52-2.11 7.03-6.68 10.55l-22.1 14.72c-2.81 1.93-5.58 3.16-9.14 3.16-3.52 0-7.03-1.76-10.5-4.92-4.57-4.92-8.79-10.55-12.61-16.48-3.87-5.93-7.38-12.66-10.9-20.7-27.34 32.26-61.75 48.39-103.18 48.39-29.45 0-52.96-8.39-70.14-25.22-17.18-16.88-25.93-39.3-25.93-67.38 0-29.8 10.5-54.06 31.91-72.24 21.41-18.23 49.8-27.38 85.91-27.38 11.95 0 24.21 1.06 37.19 2.81 13 1.76 26.36 4.57 40.35 7.74v-25.62c0-26.68-5.58-45.27-16.48-56.12-11.2-10.9-30.15-16.13-57.14-16.13-12.31 0-24.97 1.36-37.94 4.53-12.96 3.16-25.62 7.03-37.9 11.95-4.22 1.76-8.79 3.52-12.31 4.57-1.76 0.35-3.87 1.01-5.58 1.01-4.92 0-7.38-3.52-7.38-10.86v-17.18c0-5.62 0.7-9.84 2.46-12.31 1.75-2.46 4.92-4.92 9.84-7.33 12.26-6.33 26.98-11.6 44.17-15.82 17.18-4.57 35.43-6.64 54.77-6.64 41.75 0 72.25 9.49 91.93 28.43 19.3 18.9 29.1 47.69 29.1 86.26v113.73zm-142.38 53.36c11.55 0 23.46-2.11 36.13-6.33 12.61-4.22 23.86-11.91 33.32-22.41 5.62-6.68 9.84-14.07 11.95-22.5 2.07-8.4 3.52-18.59 3.52-30.5v-14.72c-11.25-2.81-22.1-4.57-32.3-5.98-10.55-1.4-22.1-2.11-32.96-2.11-23.51 0-40.7 4.57-52.31 14.07-11.56 9.45-17.14 22.76-17.14 40.3 0 16.48 4.18 28.79 12.96 37.18 8.4 8.79 20.65 13.01 36.83 13.01zm281.72 37.89c-6.33 0-10.55-1.05-13.36-3.52-2.81-2.11-5.27-7.03-7.38-13.67l-82.79-271.98c-1.4-4.92-2.46-9.84-3.16-14.07 0-5.62 2.81-8.79 8.39-8.79h34.42c6.64 0 11.21 1.1 13.62 3.52 2.86 2.11 4.97 7.03 7.03 13.71l58.98 232.27 54.77-232.27c1.76-7.03 3.87-11.6 6.64-13.71 2.81-2.11 7.38-3.52 14.07-3.52h28.04c6.68 0 11.25 1.1 14.07 3.52 2.77 2.11 5.27 7.03 6.64 13.71l55.41 235.09 60.74-235.09c2.11-7.03 4.57-11.6 7.03-13.71 2.81-2.11 7.38-3.52 13.67-3.52h32.66c5.58 0 8.79 2.86 8.79 8.79 0 1.76-0.4 3.52-0.75 5.63-0.7 2.81-1.4 5.93-2.46 8.79l-84.5 271.98c-2.11 7.03-4.57 11.56-7.38 13.67-2.81 2.46-7.03 3.52-13.32 3.52h-30.19c-6.64 0-11.21-1.05-14.07-3.52-2.77-2.46-5.23-7.03-6.59-14.07l-54.46-226.29-54.06 225.95c-1.76 7.03-3.82 11.6-6.59 14.07-2.86 2.46-7.78 3.52-14.07 3.52h-30.19zm450.76 9.44c-18.23 0-36.48-2.11-54.02-6.28-17.53-4.22-31.21-8.79-40.35-14.07-5.63-3.12-9.45-6.64-10.86-9.8a24.74 24.74 0 0 1-2.11-9.85v-17.88c0-7.34 2.81-10.86 8.04-10.86 2.11 0 4.22 0.35 6.33 1.05 2.11 0.7 5.27 2.11 8.79 3.52 11.91 5.27 24.87 9.45 38.6 12.26 14.02 2.81 27.69 4.22 41.75 4.22 22.06 0 39.3-3.87 51.21-11.6 11.6-7.69 17.53-18.59 17.53-33.32 0-9.8-3.12-17.88-9.45-24.56-6.33-6.64-18.28-12.62-35.48-18.24l-50.86-15.83c-25.62-8.04-44.58-19.95-56.12-35.73a82.69 82.69 0 0 1-17.58-50.91c0-14.72 3.21-27.69 9.49-38.95 6.33-11.2 14.72-21.05 25.27-28.74 10.55-8.08 22.41-14.07 36.48-18.23 14.07-4.22 28.79-5.98 44.22-5.98 7.69 0 15.78 0.35 23.51 1.4 8.04 1.06 15.38 2.46 22.76 3.87 7.03 1.76 13.71 3.52 20 5.58 6.33 2.11 11.25 4.22 14.77 6.33 4.22 2.46 7.74 5.27 10.55 8.79 2.11 3.17 3.12 7.38 3.12 11.56v16.47c0 7.39-2.81 11.25-8.09 11.25-2.81 0-7.03-1.4-13.31-4.22-22.41-10.2-47.69-15.43-75.77-15.43-20 0-35.82 3.12-46.68 9.8-10.9 6.68-16.48 16.83-16.48 31.21 0 9.84 3.52 18.28 10.55 24.92 7 6.68 19.96 13.35 38.55 19.34l49.85 15.73c25.22 8.08 43.52 19.34 54.37 33.71 10.86 14.37 16.13 30.86 16.13 49.1 0 15.07-3.17 28.78-9.1 40.7-6.33 11.96-14.77 22.46-25.62 30.9-10.9 8.79-23.86 15.07-38.95 19.65-15.82 4.88-32.26 7.34-50.21 7.34z"/>
    <path d="M887.34 722.1c-115.44 85.26-283.08 130.53-427.3 130.53-202.29 0-399.69-75.2-536.34-298.78-10.86-9.8-1.05-23.16 11.95-15.43 148.77 86.26 332.13 138.57 522.05 138.57 128.1 0 268.75-26.68 398.21-81.4 19.3-8.8 35.78 12.61 16.83 26.68zm48.04-54.77c-14.77-18.9-97.56-9.1-135.11-4.53-11.21 1.4-12.96-8.44-2.77-15.82 65.92-46.29 174.3-32.97 186.96-17.53 12.61 15.82-3.52 124.27-65.27 176.14-9.45 8.09-18.59 3.87-14.37-6.64 14.07-34.72 45.27-112.98 30.56-131.62z"/>
  </symbol>
</svg>
