<svg xmlns="http://www.w3.org/2000/svg" viewBox="0 0 1052 1052">
  <symbol id="iconAws" viewBox="0 0 1052 1052">
    <path d="M 306.699 441.02 C 306.699 453.828 308.039 464.169 310.384 471.741 C 313.064 479.356 316.414 487.664 321.104 496.663 C 322.779 499.389 323.449 502.159 323.449 504.582 C 323.449 508.043 321.439 511.504 317.084 514.966 L 296.02 529.461 C 293.465 531.365 290.45 532.446 287.309 532.576 C 283.959 532.576 280.609 530.845 277.301 527.73 C 272.778 522.711 268.758 517.302 265.282 511.504 C 261.513 504.884 258.079 498.048 254.897 491.125 C 228.849 522.884 196.06 538.764 156.611 538.764 C 128.554 538.764 106.15 530.499 89.776 513.927 C 73.402 497.312 65.068 475.246 65.068 447.597 C 65.068 418.261 75.077 394.377 95.471 376.464 C 115.865 358.508 142.918 349.508 177.34 349.508 C 188.731 349.508 200.415 350.546 212.768 352.277 C 225.164 354.008 237.895 356.777 251.211 359.892 L 251.211 334.667 C 251.211 308.403 245.893 290.1 235.508 279.413 C 224.829 268.682 206.78 263.533 181.068 263.533 C 169.342 263.533 157.281 264.875 144.928 267.99 C 132.574 271.105 120.513 274.913 108.83 279.759 C 105.019 281.533 101.082 283.004 97.104 284.259 C 95.387 284.822 93.587 285.168 91.786 285.254 C 87.096 285.254 84.75 281.793 84.75 274.567 L 84.75 257.649 C 84.75 252.111 85.421 247.957 87.096 245.534 C 89.608 242.375 92.833 239.909 96.476 238.308 C 108.16 232.077 122.189 226.885 138.562 222.731 C 155.606 218.232 173.153 216.025 190.741 216.198 C 230.524 216.198 259.587 225.544 278.306 244.193 C 296.69 262.798 306.028 291.139 306.028 329.128 L 306.028 441.02 L 306.699 441.02 Z M 171.017 493.548 C 182.031 493.548 193.379 491.471 205.44 487.317 C 217.459 483.164 228.179 475.592 237.183 465.251 C 242.543 458.674 246.563 451.405 248.573 443.097 C 250.541 434.833 251.923 424.795 251.923 413.069 L 251.923 398.574 C 241.789 396.021 231.487 394.074 221.144 392.69 C 210.716 391.305 200.247 390.613 189.736 390.613 C 167.332 390.613 150.958 395.113 139.902 404.459 C 128.889 413.761 123.57 426.872 123.57 444.136 C 123.57 460.361 127.549 472.476 135.924 480.741 C 143.923 489.394 155.606 493.548 171.017 493.548 Z M 439.449 530.845 C 433.418 530.845 429.398 529.807 426.718 527.384 C 424.038 525.307 421.693 520.461 419.683 513.927 L 341.163 246.918 C 339.614 242.462 338.609 237.789 338.148 233.073 C 338.148 227.534 340.828 224.419 346.147 224.419 L 378.936 224.419 C 385.26 224.419 389.615 225.501 391.918 227.88 C 394.64 229.957 396.65 234.803 398.618 241.38 L 454.817 470.01 L 506.954 241.38 C 508.629 234.457 510.639 229.957 513.278 227.88 C 517.298 225.328 521.988 224.116 526.678 224.419 L 553.396 224.419 C 559.761 224.419 564.116 225.501 566.796 227.88 C 569.435 229.957 571.822 234.803 573.12 241.38 L 625.927 472.779 L 683.759 241.38 C 685.769 234.457 688.114 229.957 690.459 227.88 C 694.312 225.328 698.876 224.116 703.483 224.419 L 734.598 224.419 C 739.916 224.419 742.973 227.231 742.973 233.073 C 742.973 234.803 742.596 236.534 742.261 238.611 C 741.717 241.553 740.963 244.452 739.916 247.265 L 659.386 514.23 C 657.376 521.153 655.031 525.61 652.351 527.687 C 648.582 530.196 644.143 531.408 639.662 531.148 L 610.893 531.148 C 604.57 531.148 600.214 530.11 597.492 527.687 C 594.854 525.264 592.509 520.764 591.211 513.841 L 539.367 291.095 L 487.858 513.495 C 486.183 520.418 484.215 524.918 481.577 527.341 C 478.855 529.764 474.165 530.802 468.176 530.802 L 439.449 530.845 Z M 868.939 540.148 C 851.56 540.148 834.181 538.071 817.472 533.961 C 800.763 529.807 787.739 525.307 779.029 520.115 C 773.669 517.043 770.025 513.581 768.685 510.466 C 767.387 507.394 766.675 504.106 766.675 500.774 L 766.675 483.164 C 766.675 475.938 769.355 472.476 774.339 472.476 C 776.349 472.476 778.359 472.823 780.369 473.515 C 782.379 474.207 785.394 475.592 788.745 476.976 C 800.093 482.169 812.447 486.279 825.513 489.048 C 838.871 491.817 851.895 493.202 865.296 493.202 C 886.318 493.202 902.734 489.394 914.082 481.779 C 925.138 474.856 931.796 462.352 931.461 448.982 C 931.713 439.982 928.446 431.285 922.458 424.795 C 916.427 418.261 905.037 412.377 888.663 406.838 L 840.211 391.262 C 815.797 383.344 797.748 371.618 786.734 356.085 C 775.93 341.763 770.067 324.152 769.984 305.98 C 769.984 291.485 773.041 278.721 779.029 267.644 C 785.059 256.611 793.058 246.918 803.108 239.346 C 813.159 231.385 824.466 225.501 837.866 221.39 C 851.267 217.236 865.296 215.506 879.994 215.506 C 887.323 215.506 895.028 215.852 902.399 216.89 C 910.062 217.929 917.056 219.313 924.091 220.698 C 930.791 222.429 937.157 224.159 943.145 226.193 C 949.175 228.27 953.865 230.347 957.216 232.424 C 961.152 234.457 964.586 237.443 967.266 241.077 C 969.402 244.452 970.449 248.433 970.239 252.457 L 970.239 268.682 C 970.239 275.952 967.559 279.759 962.534 279.759 C 958.095 279.24 953.782 277.812 949.845 275.605 C 929.661 266.389 907.759 261.803 885.69 262.149 C 866.636 262.149 851.56 265.221 841.216 271.798 C 830.831 278.375 825.513 288.37 825.513 302.518 C 825.513 312.21 828.863 320.518 835.563 327.051 C 842.221 333.628 854.575 340.205 872.289 346.09 L 919.778 361.58 C 943.815 369.541 961.236 380.618 971.579 394.766 C 981.923 408.915 986.948 425.141 986.948 443.097 C 986.948 457.938 983.933 471.438 978.28 483.164 C 972.249 494.933 964.209 505.274 953.865 513.581 C 943.48 522.235 931.126 528.422 916.762 532.922 C 901.687 537.725 886.025 540.148 868.939 540.148 Z M 932.131 708.029 C 822.162 791.97 662.36 836.493 525.003 836.493 C 332.453 836.493 158.998 762.937 27.923 640.661 C 17.58 631.012 26.918 617.858 39.314 625.473 C 181.026 710.409 355.862 761.898 536.687 761.898 C 658.716 761.898 792.723 735.635 916.092 681.765 C 934.476 673.112 950.18 694.183 932.131 708.029 Z M 977.945 654.117 C 963.874 635.512 884.978 645.16 849.215 649.66 C 838.536 651.045 836.861 641.353 846.577 634.084 C 909.392 588.522 1012.7 601.632 1024.72 616.82 C 1036.74 632.396 1021.37 739.096 962.534 790.196 C 953.53 798.157 944.82 794.004 948.84 783.662 C 962.241 749.48 991.974 672.463 977.945 654.117 Z"/>
  </symbol>
</svg>
