<?xml version="1.0" encoding="utf-8"?>
<svg height="2500"
    viewBox="-0.153305614872707 -16.047683547530013 587.519258222215 678.613169536194" width="2269"
    xmlns="http://www.w3.org/2000/svg">
    <g stroke-width="2.41">
        <path
            d="M 546.36 124.76 C 571.85 140.14 587.37 167.79 587.21 197.56 L 587.21 449.03 C 587.36 478.8 571.82 506.45 546.32 521.82 L 334.46 647.56 C 309.28 662.57 277.89 662.57 252.71 647.56 L 40.85 521.82 C 15.38 506.45 -0.14 478.82 0 449.07 L 0 197.54 C -0.15 167.78 15.36 140.13 40.85 124.75 L 252.75 -1.03 C 277.93 -16.05 309.31 -16.05 334.49 -1.03 L 546.35 124.75 Z M 260.13 634.69 C 270.26 640.71 281.82 643.89 293.6 643.9 C 297.33 643.87 301.05 643.51 304.71 642.84 C 293.51 639.4 286.26 627.74 286.26 609.71 L 286.26 362.73 C 286.3 332.61 304.71 316.19 329.7 301.64 L 529.97 177.6 C 548.43 167 564.25 171.11 571.29 186.09 C 568.11 165.93 556.2 148.21 538.75 137.64 L 327.07 11.86 C 306.45 -0.44 280.75 -0.44 260.13 11.86 L 48.27 137.64 C 27.33 150.32 14.58 173.06 14.67 197.54 L 14.67 449.06 C 14.59 473.54 27.34 496.27 48.27 508.96 L 260.13 634.7 Z M 438.05 504.94 C 436.64 505.51 435.69 506.85 435.63 508.38 L 435.63 522.25 C 435.63 523.95 436.78 524.62 438.18 523.82 L 491.76 491.24 C 493.07 490.26 493.7 488.6 493.37 487 L 493.37 474.82 C 493.33 473.25 492.1 472.57 490.82 473.38 Z M 367.93 363.93 C 366 365.13 364.83 367.25 364.84 369.53 L 365.6 388.03 C 350.22 400.24 341.1 418.7 340.74 438.34 C 341.04 460.82 355.34 463.79 370.74 463.79 C 382.66 463.88 387.7 467.69 387.7 476.86 C 387.34 487.76 380.95 497.57 371.12 502.31 C 364.3 506.18 356.24 507.2 348.68 505.15 C 348.12 504.9 347.49 504.9 346.94 505.15 C 346.56 505.34 346.22 505.58 345.92 505.87 C 344.97 506.8 344.3 507.97 344.01 509.27 L 340.15 525.6 C 339.68 527.51 340.19 529.16 341.29 529.59 C 347.23 531.96 356.52 531.07 365.69 527.25 L 365.69 545.03 C 365.73 547.4 367.13 548.25 368.83 547.4 L 379.52 541.25 C 381.42 540.06 382.58 537.98 382.61 535.74 L 382.27 517.67 C 398.28 504.7 407.77 485.36 408.24 464.77 C 408.02 445.04 399.54 436.51 379.98 436.17 C 365.18 435.92 360.94 433.59 360.94 425.1 C 361.18 415.67 366.8 407.21 375.4 403.34 C 381.28 399.84 388.28 398.72 394.96 400.2 C 395.5 400.3 396.05 400.21 396.53 399.95 C 396.92 399.75 397.28 399.49 397.59 399.18 C 398.48 398.29 399.11 397.18 399.41 395.96 L 403.44 379.8 C 403.95 377.67 403.4 375.89 402.08 375.55 C 395.23 374.27 388.15 375.13 381.81 378.01 L 381.64 359.6 C 381.59 357.18 380.19 356.34 378.5 357.18 Z" />
    </g>
</svg>
