<svg xmlns="http://www.w3.org/2000/svg">
  <symbol id="iconBash" viewBox="-0.15 -16.05 587.52 678.61">
    <g stroke-width="2.41">
      <path d="M546.36 124.76C571.85 140.14 587.37 167.79 587.21 197.56V449.03C587.36 478.8 571.82 506.45 546.32 521.82L334.46 647.56C309.28 662.57 277.89 662.57 252.71 647.56L40.85 521.82C15.38 506.45-0.14 478.82 0 449.07V197.54C-0.15 167.78 15.36 140.13 40.85 124.75L252.75-1.03C277.93-16.05 309.31-16.05 334.49-1.03L546.35 124.75ZM260.13 634.69C270.26 640.71 281.82 643.89 293.6 643.9C297.33 643.87 301.05 643.51 304.71 642.84C293.51 639.4 286.26 627.74 286.26 609.71V362.73C286.3 332.61 304.71 316.19 329.7 301.64L529.97 177.6C548.43 167 564.25 171.11 571.29 186.09C568.11 165.93 556.2 148.21 538.75 137.64L327.07 11.86C306.45-0.44 280.75-0.44 260.13 11.86L48.27 137.64C27.33 150.32 14.58 173.06 14.67 197.54V449.06C14.59 473.54 27.34 496.27 48.27 508.96L260.13 634.7ZM438.05 504.94C436.64 505.51 435.69 506.85 435.63 508.38V522.25C435.63 523.95 436.78 524.62 438.18 523.82L491.76 491.24C493.07 490.26 493.7 488.6 493.37 487V474.82C493.33 473.25 492.1 472.57 490.82 473.38ZM367.93 363.93C366 365.13 364.83 367.25 364.84 369.53L365.6 388.03C350.22 400.24 341.1 418.7 340.74 438.34C341.04 460.82 355.34 463.79 370.74 463.79C382.66 463.88 387.7 467.69 387.7 476.86C387.34 487.76 380.95 497.57 371.12 502.31C364.3 506.18 356.24 507.2 348.68 505.15C348.12 504.9 347.49 504.9 346.94 505.15C346.56 505.34 346.22 505.58 345.92 505.87C344.97 506.8 344.3 507.97 344.01 509.27L340.15 525.6C339.68 527.51 340.19 529.16 341.29 529.59C347.23 531.96 356.52 531.07 365.69 527.25V545.03C365.73 547.4 367.13 548.25 368.83 547.4L379.52 541.25C381.42 540.06 382.58 537.98 382.61 535.74L382.27 517.67C398.28 504.7 407.77 485.36 408.24 464.77C408.02 445.04 399.54 436.51 379.98 436.17C365.18 435.92 360.94 433.59 360.94 425.1C361.18 415.67 366.8 407.21 375.4 403.34C381.28 399.84 388.28 398.72 394.96 400.2C395.5 400.3 396.05 400.21 396.53 399.95C396.92 399.75 397.28 399.49 397.59 399.18C398.48 398.29 399.11 397.18 399.41 395.96L403.44 379.8C403.95 377.67 403.4 375.89 402.08 375.55C395.23 374.27 388.15 375.13 381.81 378.01L381.64 359.6C381.59 357.18 380.19 356.34 378.5 357.18Z"/>
    </g>
  </symbol>
</svg>
