<svg xmlns="http://www.w3.org/2000/svg" style="display:none;">
  <symbol id="iconExpo" viewBox="0 0 1052 1052">
    <path d="M499.8 394.3c8.3-13.2 17.4-14.9 24.8-14.9c7.4 0 19.6 1.7 27.9 14.9c65.4 96.7 173.4 289.3 253.1 431.4c52.0 92.6 91.9 163.8 100.1 172.9c30.7 34.0 72.9 12.8 97.4-25.8c24.1-38.0 30.8-64.6 30.8-93.0c0-19.4-349.3-718.4-384.5-776.7C631.2 46.7 604.7 32.5 547.0 32.5h-43.4c-57.7 0-66.1 14.1-99.9 70.1C368.5 160.8 19.0 859.8 19.0 879.2c0 28.5 6.7 55.1 30.9 93.1c24.5 38.6 66.6 59.7 97.4 25.7c8.2-9.0 48.1-80.2 100.1-172.9c79.7-142.1 187.3-334.7 252.8-431.4z"/>
  </symbol>
</svg>
