<svg xmlns="http://www.w3.org/2000/svg" style="display:none;">
  <symbol id="iconExpress" viewBox="0 0 1052 1052">
    <path d="M 966.8 769.2 C 940.2 779.3 910.1 769.2 896.6 742.8 L 770.0 567.5 L 751.5 543.0 L 604.5 743.0 C 592.0 767.4 563.7 779.1 538.1 769.6 L 728.3 514.8 L 551.4 284.9 C 577.4 275.2 606.8 285.4 621.4 309.3 L 752.8 487.2 L 885.5 310.0 C 897.8 286.4 925.6 275.6 950.6 285.3 L 882.8 376.4 L 789.6 497.2 C 778.8 507.2 778.8 523.8 789.6 533.8 L 966.7 769.3 Z M 88.2 506.1 C 90.1 482.3 100.0 434.8 100.0 434.8 C 142.0 284.2 315.0 221.6 434.0 315.0 C 503.7 369.6 521.0 447.3 517.5 534.6 L 125.1 534.6 C 118.8 690.6 231.3 784.7 375.3 736.6 C 422.7 719.5 458.3 680.1 470.2 630.8 C 478.0 606.3 489.5 601.8 513.5 608.9 C 505.5 669.9 470.5 723.2 418.0 754.9 C 330.6 802.6 222.2 788.1 149.6 720.4 C 114.6 681.0 93.4 631.1 89.3 578.8 C 89.3 570.1 88.2 551.5 88.2 551.5 C 88.2 551.5 86.9 520.9 88.2 506.1 Z M 125.6 500.8 L 480.7 500.8 C 478.2 387.9 407.1 307.7 311.9 307.0 C 205.9 305.5 130.0 383.8 125.0 500.3 Z M 526.9 -0.7 C 235.5 -0.7 -0.7 235.5 -0.7 526.9 C -0.7 818.3 235.5 1054.5 526.9 1054.5 C 818.3 1054.5 1054.5 818.3 1054.5 526.9 C 1054.5 235.5 818.3 -0.7 526.9 -0.7 Z"/>
  </symbol>
</svg>
