<svg xmlns="http://www.w3.org/2000/svg" style="display:none;">
  <symbol id="iconFigma" viewBox="0 0 250 250">
    <path d="M 189.65 86.5 C 202.15 78.3 210.45 64.1 210.45 48 C 210.45 22.6 189.75 2 164.45 2 L 85.45 2 C 60.05 2 39.45 22.7 39.45 48 C 39.45 64.1 47.75 78.3 60.25 86.5 C 47.75 94.7 39.45 108.9 39.45 125 C 39.45 141.1 47.75 155.3 60.25 163.5 C 47.75 171.7 39.45 185.9 39.45 202 C 39.45 227.4 60.25 248 85.75 248 C 111.55 248 132.55 227.1 132.55 201.5 L 132.55 159 C 140.75 166.4 151.65 171 163.55 171 L 164.55 171 C 189.95 171 210.55 150.3 210.55 125 C 210.45 108.9 202.15 94.7 189.65 86.5 Z M 117.45 201.5 C 117.45 218.8 103.25 233 85.75 233 C 68.55 233 54.55 219.1 54.55 202 C 54.55 184.9 68.45 171.1 85.45 171 L 117.45 171 L 117.45 201.5 Z M 117.45 156 L 85.45 156 C 68.35 156 54.55 142.1 54.55 125 C 54.55 107.9 68.45 94 85.55 94 L 117.55 94 L 117.55 156 L 117.45 156 Z M 117.45 79 L 85.45 79 C 68.35 79 54.45 65.1 54.45 48 C 54.45 30.9 68.35 17 85.45 17 L 117.45 17 L 117.45 79 Z M 132.45 17 L 164.45 17 C 181.55 17 195.45 30.9 195.45 48 C 195.45 65.1 181.55 79 164.45 79 L 132.45 79 L 132.45 17 Z M 164.45 156 L 163.45 156 C 146.35 156 132.45 142.1 132.45 125 C 132.45 107.9 146.35 94 163.45 94 L 164.45 94 C 181.55 94 195.45 107.9 195.45 125 C 195.45 142.1 181.55 156 164.45 156 Z"/>
  </symbol>
</svg>
