<?xml version="1.0" encoding="UTF-8"?>
<svg id="react" xmlns="http://www.w3.org/2000/svg" xmlns:xlink="http://www.w3.org/1999/xlink" viewBox="0 0 300 300">
  <defs>
    <style>
      .cls-1 {
        fill: url(#Degradado_sin_nombre_4-4);
      }

      .cls-2 {
        fill: url(#Degradado_sin_nombre_4-2);
      }

      .cls-3 {
        mask: url(#mask);
      }

      .cls-4 {
        fill: url(#Degradado_sin_nombre_4);
      }

      .cls-5 {
        fill: #699;
      }

      .cls-6 {
        fill: url(#Degradado_sin_nombre_4-3);
      }

      .cls-7 {
        fill: #61dafb;
      }
    </style>
    <radialGradient id="Degradado_sin_nombre_4" data-name="Degradado sin nombre 4" cx="261.56" cy="-341.67" fx="261.56" fy="-341.67" r="239.36" gradientTransform="translate(0 -338) scale(1 -1)" gradientUnits="userSpaceOnUse">
      <stop offset="0" stop-color="#000"/>
      <stop offset="1" stop-color="#fff"/>
    </radialGradient>
    <radialGradient id="Degradado_sin_nombre_4-2" data-name="Degradado sin nombre 4" cx="261.56" cy="-341.67" fx="261.56" fy="-341.67" r="239.36" xlink:href="#Degradado_sin_nombre_4"/>
    <radialGradient id="Degradado_sin_nombre_4-3" data-name="Degradado sin nombre 4" cx="261.56" cy="-341.67" fx="261.56" fy="-341.67" r="239.36" xlink:href="#Degradado_sin_nombre_4"/>
    <radialGradient id="Degradado_sin_nombre_4-4" data-name="Degradado sin nombre 4" cx="261.56" cy="-341.67" fx="261.56" fy="-341.67" r="239.36" xlink:href="#Degradado_sin_nombre_4"/>
    <mask id="mask" x="4.8" y="20.88" width="290.4" height="258.23" maskUnits="userSpaceOnUse">
      <g id="mask-25">
        <g id="React-2">
          <circle class="cls-4" cx="150" cy="150" r="25.93"/>
          <path class="cls-2" d="M150,207.21c-38.36,0-74.47-5.72-101.67-16.11-28.07-10.72-43.53-25.31-43.53-41.1s15.46-30.38,43.53-41.1c27.2-10.39,63.31-16.11,101.67-16.11s74.47,5.72,101.67,16.11c28.07,10.72,43.53,25.31,43.53,41.1s-15.46,30.38-43.53,41.1c-27.2,10.39-63.31,16.11-101.67,16.11h0ZM150,98.51c-37.68,0-73.07,5.59-99.64,15.73-12.74,4.86-22.71,10.49-29.61,16.73-6.8,6.14-10.25,12.54-10.25,19.04s3.45,12.9,10.25,19.04c6.91,6.23,16.87,11.86,29.61,16.73,26.57,10.14,61.95,15.73,99.64,15.73s73.07-5.59,99.64-15.73c12.74-4.86,22.71-10.49,29.61-16.73,6.8-6.14,10.25-12.54,10.25-19.04s-3.45-12.9-10.25-19.04c-6.91-6.23-16.87-11.86-29.61-16.73-26.57-10.14-61.95-15.73-99.64-15.73h0Z"/>
          <path class="cls-6" d="M209.34,279.12c-12.28,0-27.44-6.97-44.1-20.51-22.6-18.36-45.61-46.77-64.79-80-19.18-33.22-32.28-67.35-36.89-96.11-4.75-29.67.16-50.35,13.83-58.25,13.67-7.89,34.04-1.8,57.36,17.15,22.6,18.36,45.61,46.77,64.79,80,19.18,33.22,32.28,67.35,36.89,96.11,4.75,29.67-.16,50.35-13.83,58.25-3.9,2.25-8.35,3.37-13.26,3.37h0ZM90.68,26.59c-3.93,0-7.41.87-10.42,2.61-5.62,3.25-9.45,9.43-11.36,18.39-1.95,9.1-1.84,20.54.32,34.01,4.5,28.08,17.35,61.52,36.2,94.15,18.84,32.64,41.37,60.48,63.44,78.42,10.58,8.6,20.44,14.42,29.29,17.28,8.71,2.82,15.98,2.6,21.61-.65,5.62-3.25,9.45-9.43,11.36-18.39,1.95-9.1,1.84-20.54-.32-34.01-4.5-28.08-17.35-61.52-36.2-94.15s-41.37-60.48-63.44-78.42c-10.58-8.6-20.44-14.42-29.29-17.28-4.05-1.31-7.78-1.96-11.19-1.96h0Z"/>
          <path class="cls-1" d="M90.66,279.12c-4.91,0-9.36-1.11-13.26-3.37-13.67-7.89-18.58-28.58-13.83-58.25,4.61-28.75,17.71-62.88,36.89-96.11,19.18-33.22,42.19-61.63,64.79-80,23.32-18.95,43.69-25.04,57.36-17.15,13.67,7.89,18.58,28.58,13.83,58.25-4.61,28.75-17.71,62.88-36.89,96.11-19.18,33.22-42.19,61.63-64.79,80-16.66,13.54-31.81,20.51-44.1,20.51ZM209.32,26.59c-3.4,0-7.14.65-11.19,1.96-8.85,2.86-18.71,8.68-29.29,17.28-22.07,17.94-44.6,45.79-63.44,78.42-18.84,32.64-31.69,66.07-36.2,94.15-2.16,13.47-2.27,24.91-.32,34.01,1.92,8.96,5.74,15.14,11.36,18.39s12.9,3.46,21.61.65c8.85-2.86,18.71-8.68,29.29-17.28,22.07-17.94,44.6-45.79,63.44-78.42,18.84-32.64,31.69-66.07,36.2-94.15,2.16-13.47,2.27-24.91.32-34.01-1.92-8.96-5.74-15.14-11.36-18.39-3.01-1.74-6.5-2.61-10.42-2.61h0Z"/>
        </g>
      </g>
    </mask>
  </defs>
  <g id="react-2" data-name="react">
    <g id="React">
      <circle class="cls-7" cx="150" cy="150" r="25.93"/>
      <path class="cls-7" d="M150,207.21c-38.36,0-74.47-5.72-101.67-16.11-28.07-10.72-43.53-25.31-43.53-41.1s15.46-30.38,43.53-41.1c27.2-10.39,63.31-16.11,101.67-16.11s74.47,5.72,101.67,16.11c28.07,10.72,43.53,25.31,43.53,41.1s-15.46,30.38-43.53,41.1c-27.2,10.39-63.31,16.11-101.67,16.11h0ZM150,98.51c-37.68,0-73.07,5.59-99.64,15.73-12.74,4.86-22.71,10.49-29.61,16.73-6.8,6.14-10.25,12.54-10.25,19.04s3.45,12.9,10.25,19.04c6.91,6.23,16.87,11.86,29.61,16.73,26.57,10.14,61.95,15.73,99.64,15.73s73.07-5.59,99.64-15.73c12.74-4.86,22.71-10.49,29.61-16.73,6.8-6.14,10.25-12.54,10.25-19.04s-3.45-12.9-10.25-19.04c-6.91-6.23-16.87-11.86-29.61-16.73-26.57-10.14-61.95-15.73-99.64-15.73h0Z"/>
      <path class="cls-7" d="M209.34,279.12c-12.28,0-27.44-6.97-44.1-20.51-22.6-18.36-45.61-46.77-64.79-80-19.18-33.22-32.28-67.35-36.89-96.11-4.75-29.67.16-50.35,13.83-58.25,13.67-7.89,34.04-1.8,57.36,17.15,22.6,18.36,45.61,46.77,64.79,80,19.18,33.22,32.28,67.35,36.89,96.11,4.75,29.67-.16,50.35-13.83,58.25-3.9,2.25-8.35,3.37-13.26,3.37h0ZM90.68,26.59c-3.93,0-7.41.87-10.42,2.61-5.62,3.25-9.45,9.43-11.36,18.39-1.95,9.1-1.84,20.54.32,34.01,4.5,28.08,17.35,61.52,36.2,94.15,18.84,32.64,41.37,60.48,63.44,78.42,10.58,8.6,20.44,14.42,29.29,17.28,8.71,2.82,15.98,2.6,21.61-.65,5.62-3.25,9.45-9.43,11.36-18.39,1.95-9.1,1.84-20.54-.32-34.01-4.5-28.08-17.35-61.52-36.2-94.15-18.84-32.64-41.37-60.48-63.44-78.42-10.58-8.6-20.44-14.42-29.29-17.28-4.05-1.31-7.78-1.96-11.19-1.96h0Z"/>
      <path class="cls-7" d="M90.66,279.12c-4.91,0-9.36-1.11-13.26-3.37-13.67-7.89-18.58-28.58-13.83-58.25,4.61-28.75,17.71-62.88,36.89-96.11,19.18-33.22,42.19-61.63,64.79-80,23.32-18.95,43.69-25.04,57.36-17.15,13.67,7.89,18.58,28.58,13.83,58.25-4.61,28.75-17.71,62.88-36.89,96.11-19.18,33.22-42.19,61.63-64.79,80-16.66,13.54-31.81,20.51-44.1,20.51ZM209.32,26.59c-3.4,0-7.14.65-11.19,1.96-8.85,2.86-18.71,8.68-29.29,17.28-22.07,17.94-44.6,45.79-63.44,78.42-18.84,32.64-31.69,66.07-36.2,94.15-2.16,13.47-2.27,24.91-.32,34.01,1.92,8.96,5.74,15.14,11.36,18.39s12.9,3.46,21.61.65c8.85-2.86,18.71-8.68,29.29-17.28,22.07-17.94,44.6-45.79,63.44-78.42,18.84-32.64,31.69-66.07,36.2-94.15,2.16-13.47,2.27-24.91.32-34.01-1.92-8.96-5.74-15.14-11.36-18.39-3.01-1.74-6.5-2.61-10.42-2.61h0Z"/>
    </g>
    <g class="cls-3">
      <g id="React-3">
        <circle class="cls-5" cx="150" cy="150" r="25.93"/>
        <path class="cls-5" d="M150,207.21c-38.36,0-74.47-5.72-101.67-16.11-28.07-10.72-43.53-25.31-43.53-41.1s15.46-30.38,43.53-41.1c27.2-10.39,63.31-16.11,101.67-16.11s74.47,5.72,101.67,16.11c28.07,10.72,43.53,25.31,43.53,41.1s-15.46,30.38-43.53,41.1c-27.2,10.39-63.31,16.11-101.67,16.11h0ZM150,98.51c-37.68,0-73.07,5.59-99.64,15.73-12.74,4.86-22.71,10.49-29.61,16.73-6.8,6.14-10.25,12.54-10.25,19.04s3.45,12.9,10.25,19.04c6.91,6.23,16.87,11.86,29.61,16.73,26.57,10.14,61.95,15.73,99.64,15.73s73.07-5.59,99.64-15.73c12.74-4.86,22.71-10.49,29.61-16.73,6.8-6.14,10.25-12.54,10.25-19.04s-3.45-12.9-10.25-19.04c-6.91-6.23-16.87-11.86-29.61-16.73-26.57-10.14-61.95-15.73-99.64-15.73h0Z"/>
        <path class="cls-5" d="M209.34,279.12c-12.28,0-27.44-6.97-44.1-20.51-22.6-18.36-45.61-46.77-64.79-80-19.18-33.22-32.28-67.35-36.89-96.11-4.75-29.67.16-50.35,13.83-58.25,13.67-7.89,34.04-1.8,57.36,17.15,22.6,18.36,45.61,46.77,64.79,80,19.18,33.22,32.28,67.35,36.89,96.11,4.75,29.67-.16,50.35-13.83,58.25-3.9,2.25-8.35,3.37-13.26,3.37h0ZM90.68,26.59c-3.93,0-7.41.87-10.42,2.61-5.62,3.25-9.45,9.43-11.36,18.39-1.95,9.1-1.84,20.54.32,34.01,4.5,28.08,17.35,61.52,36.2,94.15,18.84,32.64,41.37,60.48,63.44,78.42,10.58,8.6,20.44,14.42,29.29,17.28,8.71,2.82,15.98,2.6,21.61-.65,5.62-3.25,9.45-9.43,11.36-18.39,1.95-9.1,1.84-20.54-.32-34.01-4.5-28.08-17.35-61.52-36.2-94.15s-41.37-60.48-63.44-78.42c-10.58-8.6-20.44-14.42-29.29-17.28-4.05-1.31-7.78-1.96-11.19-1.96h0Z"/>
        <path class="cls-5" d="M90.66,279.12c-4.91,0-9.36-1.11-13.26-3.37-13.67-7.89-18.58-28.58-13.83-58.25,4.61-28.75,17.71-62.88,36.89-96.11,19.18-33.22,42.19-61.63,64.79-80,23.32-18.95,43.69-25.04,57.36-17.15,13.67,7.89,18.58,28.58,13.83,58.25-4.61,28.75-17.71,62.88-36.89,96.11-19.18,33.22-42.19,61.63-64.79,80-16.66,13.54-31.81,20.51-44.1,20.51ZM209.32,26.59c-3.4,0-7.14.65-11.19,1.96-8.85,2.86-18.71,8.68-29.29,17.28-22.07,17.94-44.6,45.79-63.44,78.42-18.84,32.64-31.69,66.07-36.2,94.15-2.16,13.47-2.27,24.91-.32,34.01,1.92,8.96,5.74,15.14,11.36,18.39s12.9,3.46,21.61.65c8.85-2.86,18.71-8.68,29.29-17.28,22.07-17.94,44.6-45.79,63.44-78.42,18.84-32.64,31.69-66.07,36.2-94.15,2.16-13.47,2.27-24.91.32-34.01-1.92-8.96-5.74-15.14-11.36-18.39-3.01-1.74-6.5-2.61-10.42-2.61h0Z"/>
      </g>
    </g>
  </g>
</svg>