<svg xmlns="http://www.w3.org/2000/svg" style="display:none;">
  <symbol id="iconJavascript" viewBox="0 0 1052 1052">
    <path d="M 0 0 L 1052 0 L 1052 1052 L 0 1052 Z M 834.2 675.2 C 802 660.4 766.1 649.8 755.4 625.4 C 751.6 611.2 751.1 603.2 753.5 594.6 C 760.4 566.7 793.7 558 820.1 566 C 837.1 571.7 853.2 584.8 862.9 605.7 C 908.3 576.3 908.2 576.5 939.9 556.3 C 928.3 538.3 922.1 530 914.5 522.3 C 887.2 491.8 850 476.1 790.5 477.3 C 780.2 478.6 769.8 480 759.5 481.3 C 729.8 488.8 701.5 504.4 684.9 525.3 C 635.1 581.8 649.3 680.7 709.9 721.4 C 769.6 766.2 857.3 776.4 868.5 818.3 C 879.4 869.6 830.8 886.2 782.5 880.3 C 746.9 872.9 727.1 854.8 705.7 821.9 C 666.3 844.7 666.3 844.7 625.8 868 C 635.4 889 645.5 898.5 661.6 916.7 C 737.8 994 928.5 990.2 962.7 873.2 C 964.1 869.2 973.3 842.4 965.9 801.1 C 958.2 753.1 926.9 712.8 834.2 675.2 Z M 571.9 483.5 L 473.5 483.5 C 473.5 568.5 473.1 652.9 473.1 737.9 C 473.1 792 475.9 841.6 467.1 856.8 C 452.7 886.7 415.4 883 398.4 877.2 C 381.1 868.7 372.3 856.6 362.1 839.5 C 359.3 834.6 357.2 830.8 356.5 830.5 C 329.8 846.8 303.2 863.2 276.5 879.5 C 289.8 906.8 309.4 930.5 334.5 945.9 C 372 968.4 422.4 975.3 475.1 963.2 C 509.4 953.2 539 932.5 554.5 901 C 576.9 859.7 572.1 809.7 571.9 754.4 C 572.4 664.2 571.9 574 571.9 483.5 Z"/>
  </symbol>
</svg>
