<svg xmlns="http://www.w3.org/2000/svg" xmlns:xlink="http://www.w3.org/1999/xlink"
    style="display:none;">
    <symbol id="iconNPM" viewBox="0 0 256 100" preserveAspectRatio="xMinYMin meet">
        <path
            d="M 71.17 14.33 L 71.17 71.17 L 56.83 71.17 L 56.83 28.66 L 42.5 28.66 L 42.5 71.17 L 14.33 71.17 L 14.33 14.33 Z M 142.33 14.33 L 142.33 71.17 L 114.16 71.17 L 114.16 85.5 L 85.5 85.5 L 85.5 14.33 Z M 128 28.66 L 114.16 28.66 L 114.16 56.83 L 128 56.83 Z M 242.16 14.33 L 242.16 71.17 L 227.83 71.17 L 227.83 28.66 L 213.5 28.66 L 213.5 71.17 L 199.17 71.17 L 199.17 28.66 L 184.83 28.66 L 184.83 71.17 L 156.66 71.17 L 156.66 14.33 Z M 0 0 L 0 85.5 L 71.17 85.5 L 71.17 99.83 L 128 99.83 L 128 85.5 L 256 85.5 L 256 0 Z" />
    </symbol>
</svg>
