<?xml version="1.0" encoding="utf-8"?>
<svg xmlns="http://www.w3.org/2000/svg" style="display:none;">
    <symbol id="iconNPM" viewBox="0 0 300 300" preserveAspectRatio="xMinYMin meet">
        <path
            d="M 83.91 108.62 L 83.91 174.72 L 67.23 174.72 L 67.23 125.29 L 50.57 125.29 L 50.57 174.72 L 17.8 174.72 L 17.8 108.62 L 83.91 108.62 Z M 166.67 108.62 L 166.67 174.72 L 133.9 174.72 L 133.9 191.39 L 100.57 191.39 L 100.57 108.62 L 166.67 108.62 Z M 150 125.29 L 133.9 125.29 L 133.9 158.05 L 150 158.05 L 150 125.29 Z M 282.77 108.62 L 282.77 174.72 L 266.1 174.72 L 266.1 125.29 L 249.43 125.29 L 249.43 174.72 L 232.77 174.72 L 232.77 125.29 L 216.09 125.29 L 216.09 174.72 L 183.33 174.72 L 183.33 108.62 L 282.77 108.62 Z M 1.14 91.96 L 1.14 191.39 L 83.91 191.39 L 83.91 208.05 L 150 208.05 L 150 191.39 L 298.86 191.39 L 298.86 91.96 L 1.14 91.96 Z"
            style=""></path>
    </symbol>
</svg>
