<svg xmlns="http://www.w3.org/2000/svg" style="display:none;">
  <symbol id="iconPostman" viewBox="0 0 128 128">
    <path d="M 91.949 23.311 C 94.803 23.309 97.546 24.412 99.605 26.389 C 99.647 26.416 99.686 26.447 99.723 26.48 C 101.806 28.524 102.979 31.32 102.98 34.238 C 102.979 37.156 101.805 39.952 99.722 41.996 C 99.113 42.642 98.417 43.198 97.652 43.648 C 97.461 43.745 97.24 43.764 97.035 43.703 C 97.034 43.703 97.032 43.702 97.031 43.702 C 95.447 44.599 93.668 45.096 91.848 45.152 L 91.863 45.148 C 90.542 45.106 89.239 44.824 88.018 44.318 C 88.332 45.234 88.478 46.2 88.449 47.168 C 88.449 54.148 80.484 62.94 66.934 75.77 C 66.754 75.95 66.516 76.059 66.262 76.078 C 66.175 76.054 66.092 76.019 66.014 75.975 C 57.966 82.661 49.12 88.324 39.68 92.836 L 40.664 97.023 C 40.817 97.678 40.668 98.366 40.258 98.899 C 40.065 99.139 39.825 99.336 39.553 99.479 L 39.579 99.504 C 39.801 99.813 39.801 100.23 39.579 100.539 C 39.458 100.732 39.274 100.878 39.059 100.954 L 26.441 100.074 C 25.695 99.997 25.055 99.508 24.785 98.809 C 24.521 98.105 24.682 97.312 25.199 96.766 L 30.285 91.676 C 30.333 91.585 30.398 91.504 30.477 91.438 L 50.227 71.639 C 50.239 71.582 50.258 71.526 50.281 71.473 L 54.311 67.406 L 45.887 69.203 L 45.574 69.406 C 44.872 69.398 44.225 69.025 43.867 68.422 C 43.462 67.652 43.609 66.708 44.23 66.098 L 50.539 59.734 C 50.578 59.711 50.617 59.691 50.658 59.672 C 50.669 59.64 50.681 59.609 50.695 59.578 C 70.646 39.631 77.06 36.091 81.801 38.121 C 80.25 34.107 81.184 29.558 84.191 26.48 C 86.26 24.445 89.048 23.306 91.95 23.31 Z M 91.863 25.082 C 88.18 25.102 84.883 27.317 83.5 30.707 C 82.117 34.094 82.867 37.998 85.453 40.598 C 88.082 43.242 92.064 44.001 95.481 42.511 L 89.381 36.411 L 89.379 36.411 C 89.181 36.253 89.066 36.014 89.066 35.761 C 89.074 35.554 89.16 35.358 89.305 35.211 C 89.328 35.177 89.353 35.144 89.381 35.113 L 97.449 26.996 C 95.845 25.766 93.884 25.094 91.863 25.082 Z M 98.982 28.512 L 91.609 35.472 L 91.344 35.737 L 92.307 36.7 L 97.23 41.547 C 97.617 41.275 97.984 40.976 98.328 40.652 C 100.045 38.939 101.012 36.614 101.016 34.188 C 101.021 32.117 100.302 30.11 98.983 28.514 Z M 98.617 32.707 C 98.799 32.764 98.953 32.887 99.051 33.051 L 99.051 33.047 C 99.635 34.291 99.454 35.759 98.586 36.824 C 98.418 37.012 98.159 37.092 97.914 37.031 C 97.781 37.082 97.633 37.082 97.5 37.031 C 97.375 36.899 97.309 36.723 97.305 36.539 C 97.297 36.356 97.368 36.178 97.5 36.051 C 98.02 35.386 98.12 34.485 97.757 33.723 C 97.667 33.551 97.649 33.35 97.707 33.164 C 97.766 32.98 97.895 32.827 98.067 32.738 C 98.24 32.661 98.436 32.65 98.617 32.707 Z M 79.34 39.429 C 78.245 39.406 77.168 39.705 76.242 40.289 C 71.746 42.304 64.514 48.453 52.686 60.225 L 57.162 64.701 L 79.969 41.996 C 80.695 41.272 81.635 40.802 82.65 40.656 C 81.708 39.9 80.547 39.47 79.34 39.43 Z M 83.305 42.391 C 82.539 42.391 81.805 42.694 81.262 43.234 L 58.375 65.914 L 60.992 68.531 L 85.242 47.425 C 85.844 46.902 86.201 46.152 86.227 45.355 C 86.252 44.555 85.932 43.782 85.348 43.234 C 84.805 42.694 84.071 42.39 83.305 42.39 Z M 86.299 49.089 L 62.535 69.922 L 66.312 73.695 C 75.651 64.871 84.608 55.791 86.299 49.089 Z M 51.367 61.547 L 45.524 67.39 L 55.154 65.33 L 51.641 61.817 Z M 54.111 70.436 L 59.496 69.776 L 58.676 68.936 L 58.428 68.682 L 58.35 68.67 C 58.343 68.642 58.337 68.614 58.332 68.586 L 57.164 67.391 L 57.16 67.387 Z M 61.027 71.463 L 51.3 72.975 L 32.492 92.059 L 38.594 98.211 C 38.712 98.317 38.89 98.317 39.008 98.211 C 39.086 98.103 39.086 97.956 39.008 97.848 L 37.973 93.348 C 37.805 92.682 38.13 91.99 38.75 91.695 C 48.011 87.211 56.693 81.618 64.605 75.039 Z M 31.094 93.402 L 26.439 98.061 L 36.455 98.709 L 31.963 94.217 L 31.094 93.403 Z M 112.851 26.066 C 91.902 -1.062 52.925 -6.07 25.796 14.883 C -1.329 35.836 -6.332 74.813 14.621 101.938 C 35.578 129.062 74.558 134.062 101.679 113.105 C 128.793 92.152 133.797 53.187 112.851 26.066 Z"></path>
  </symbol>
</svg>
