<svg xmlns="http://www.w3.org/2000/svg" style="display:none;">
  <symbol id="iconReactNative" viewBox="0 0 1052 1052">
    <path d="M843.55 526.11c0-30.52-38.22-59.45-96.83-77.42 13.52-59.73 7.52-107.25-18.97-122.47-6.1-3.57-13.24-5.26-21.04-5.26v20.95c4.32 0 7.8 0.85 10.71 2.44 12.77 7.33 18.31 35.22 13.99 71.11-1.03 8.83-2.72 18.13-4.79 27.63-18.41-4.51-38.51-7.98-59.64-10.24-12.68-17.38-25.83-33.16-39.07-46.96 30.61-28.47 59.35-44.05 78.88-44.05v-20.95c-25.83 0-59.64 18.41-93.82 50.34-34.18-31.75-67.99-49.98-93.82-49.98v20.95c19.44 0 48.28 15.5 78.88 43.78-13.15 13.8-26.3 29.5-38.79 46.87-21.22 2.25-41.32 5.73-59.82 10.33-2.16-9.4-3.76-18.5-4.89-27.24-4.41-35.9 1.03-63.78 13.71-71.21 2.82-1.69 6.48-2.44 10.8-2.44v-20.95c-7.89 0-15.03 1.69-21.22 5.26-26.39 15.22-32.3 62.65-18.69 122.19-58.42 18.04-96.55 46.87-96.55 77.42 0 30.52 38.22 59.45 96.83 77.42-13.52 59.73-7.52 107.25 18.97 122.47 6.1 3.57 13.24 5.26 21.13 5.26 25.83 0 59.64-18.41 93.82-50.34 34.18 31.75 67.99 49.98 93.82 49.98 7.89 0 15.03-1.69 21.22-5.26 26.39-15.22 32.3-62.65 18.69-122.19 58.14-17.95 96.27-46.78 96.27-77.33zM727.72 463.47c-3.48 12.12-7.8 24.51-12.68 37.1-3.85-7.52-7.89-15.03-12.3-22.54-4.32-7.52-8.92-14.84-13.52-22-13.33 1.97-26.2 4.41-38.51 7.42zm-27.24 100.03c-7.33 12.68-14.84 24.7-22.63 35.9-13.99 1.22-28.18 1.88-42.45 1.88-14.18 0-28.37-0.66-42.26-1.79-7.8-11.18-15.41-23.11-22.73-35.71-7.14-12.3-13.62-24.8-19.54-37.38 5.82-12.59 12.4-25.08 19.44-37.38 7.33-12.68 14.84-24.7 22.63-35.9 13.99-1.22 28.18-1.88 42.45-1.88 14.18 0 28.37 0.66 42.26 1.79 7.8 11.18 15.41 23.11 22.73 35.71 7.14 12.3 13.62 24.8 19.54 37.38-5.92 12.59-12.4 25.08-19.44 37.38zm27.24-12.21c5.07 12.68 9.49 25.08 12.96 37.38-12.3 3.01-25.27 5.54-38.7 7.52 4.6-7.23 9.21-14.65 13.52-22.26 4.32-7.52 8.36-15.13 12.21-22.63zm-94.94 100.22c-8.73-9.02-17.47-19.07-26.11-30.05 8.45 0.38 17.09 0.66 25.83 0.66 8.83 0 17.57-0.19 26.11-0.66a366.8 366.8 0 0 1-25.83 30.05zm-69.86-55.32c-13.33-1.97-26.2-4.41-38.51-7.42 3.48-12.12 7.8-24.51 12.68-37.1 3.85 7.52 7.89 15.03 12.3 22.54 4.41 7.52 8.92 14.65 13.52 21.98zm69.49-195.58c8.73 9.02 17.47 19.07 26.11 30.05-8.45-0.38-17.09-0.66-25.83-0.66-8.83 0-17.57 0.19-26.11 0.66a366.8 366.8 0 0 1 25.83-30.05zm-69.58 55.32c-4.6 7.23-9.21 14.65-13.52 22.26-4.32 7.52-8.36 15.03-12.21 22.54-5.07-12.68-9.49-25.08-12.96-37.38 12.3-2.91 25.27-5.45 38.7-7.42zm-85.08 117.39c-33.24-14.18-54.75-32.79-54.75-47.53 0-14.75 21.51-33.44 54.75-47.53 8.08-3.48 16.91-6.57 26.02-9.49 5.35 18.41 12.4 37.57 21.13 57.2-8.64 19.54-15.59 38.6-20.85 56.92-9.3-2.91-18.13-6.1-26.3-9.58zm50.62 134.2c-12.77-7.33-18.31-35.22-13.99-71.11 1.03-8.83 2.72-18.13 4.79-27.63 18.41 4.51 38.51 7.98 59.64 10.24 12.68 17.38 25.83 33.16 39.07 46.96-30.61 28.47-59.35 44.05-78.88 44.05-4.22-.09-7.8-.94-10.62-2.53zm222.71-71.58c4.41 35.9-1.03 63.78-13.71 71.21-2.82 1.69-6.48 2.44-10.8 2.44-19.44 0-48.28-15.5-78.88-43.78 13.15-13.8 26.3-29.5 38.79-46.87 21.22-2.25 41.32-5.73 59.82-10.33 2.16 9.49 3.85 18.6 4.79 27.33zm36.16-62.65c-8.08 3.48-16.91 6.57-26.02 9.49-5.35-18.41-12.4-37.57-21.13-57.2 8.64-19.54 15.59-38.6 20.85-56.92 9.3 2.91 18.13 6.1 26.39 9.58 33.24 14.18 54.75 32.79 54.75 47.53-.09 14.75-21.61 33.44-54.85 47.53z"/>
    <path d="M679.06 526.11c0 23.71 19.21 42.92 42.92 42.92 23.71 0 42.92-19.21 42.92-42.92 0-23.71-19.21-42.92-42.92-42.92-23.71 0-42.92 19.21-42.92 42.92z"/>
  </symbol>
</svg>
