<svg xmlns="http://www.w3.org/2000/svg" style="display:none;">
 <symbol id="iconSvg" viewBox="0 0 1052 1052">
  <path d="M965.981948,468.775219 C933.022789,435.81788 883.834533,435.81788 850.877213,468.775219 L673.811817,468.775219 L797.013438,345.582478 C844.047118,345.582478 882.069958,307.563197 882.069958,260.529517 C882.069958,213.496634 844.047118,175.476554 797.013438,175.476554 C749.975117,175.476554 711.952276,213.496634 711.952276,260.529517 L588.753234,383.724677 L588.753234,209.540834 C621.709395,176.582695 621.709395,127.395238 588.751196,94.4375687 C555.791999,61.4799 506.603743,61.4799 473.646423,94.4375687 C440.689103,127.395238 440.689103,176.582695 473.646423,209.540834 L473.646423,383.724677 L350.452342,260.529517 C350.452342,213.496634 312.433061,175.476554 265.399381,175.476554 C218.367297,175.476554 180.347217,213.496634 180.347217,260.529517 C180.347217,307.563197 218.367297,345.582478 265.399381,345.582478 L388.598423,468.775219 L211.531067,468.775219 C178.575968,435.816261 129.386713,435.817759 96.4292582,468.775967 C63.4717883,501.734175 63.4717883,550.921632 96.4292582,583.879942 C129.386713,616.838251 178.577568,616.838251 211.531067,583.879942 L388.598423,583.879942 L265.399381,707.078984 C218.367297,707.078984 180.347217,745.098264 180.347217,792.131944 C180.347217,839.164028 218.367297,877.184108 265.399381,877.184108 C312.433061,877.184108 350.452342,839.164028 350.452342,792.131944 L473.646423,668.937863 L473.646423,843.120666 C440.689103,876.078805 440.689103,925.267061 473.646423,958.225181 C506.603743,991.18249 555.794038,991.18249 588.753234,958.225181 C621.709395,925.267061 621.709395,876.078805 588.753234,843.120666 L588.753234,668.937863 L711.952276,792.131944 C711.952276,839.164028 749.975117,877.184108 797.013438,877.184108 C844.047118,877.184108 882.069958,839.164028 882.069958,792.131944 C882.069958,745.098264 844.047118,707.078984 797.013438,707.078984 L673.811817,583.879942 L850.877213,583.879942 C883.834533,616.838251 933.022789,616.838251 965.981948,583.879942 C998.941108,550.921632 998.941108,501.732975 965.981948,468.775219"/>
</symbol>
</svg>
