<svg xmlns="http://www.w3.org/2000/svg" xmlns:xlink="http://www.w3.org/1999/xlink" style="display:none;">
  <symbol id="iconTailwindCSS" viewBox="0 0 800 800">
    <path d="M 400 160.15 C 293.37 160.15 226.73 213.45 200.07 320.04 C 240.06 266.74 286.71 246.76 340.02 260.08 C 370.44 267.68 392.18 289.75 416.25 314.17 C 455.45 353.95 500.82 399.99 599.93 399.99 C 706.55 399.99 773.2 346.69 799.85 240.09 C 759.87 293.39 713.22 313.38 659.9 300.06 C 629.49 292.46 607.75 270.39 583.68 245.97 C 544.48 206.19 499.1 160.15 400 160.15 L 400 160.15 Z M 200.07 399.99 C 93.45 399.99 26.8 453.29 0.15 559.89 C 40.13 506.59 86.78 486.6 140.1 499.93 C 170.51 507.54 192.25 529.6 216.32 554.01 C 255.52 593.79 300.9 639.84 400 639.84 C 506.63 639.84 573.27 586.54 599.93 479.94 C 559.94 533.24 513.29 553.23 459.98 539.9 C 429.56 532.31 407.82 510.23 383.75 485.82 C 344.55 446.04 299.18 399.99 200.07 399.99 L 200.07 399.99 Z" />
  </symbol>
</svg>
