<svg xmlns="http://www.w3.org/2000/svg" style="display:none;">
  <symbol id="iconTypeScript" viewBox="0 0 1052 1052">
    <path d="M 0 0 L 1052 0 L 1052 1052 L 0 1052 Z M 232.645 529.601 L 232.284 572.657 L 369.217 572.657 L 369.217 961.913 L 466.209 961.913 L 466.209 572.657 L 603.143 572.657 L 603.143 530.501 C 603.143 507.073 602.629 487.506 602.012 486.966 C 601.498 486.323 518.076 485.989 417.092 486.156 L 233.057 486.679 Z M 769.309 483.151 C 712.213 494.055 672.887 530.757 661.369 583.048 C 658.023 598.124 659.102 635.582 663.117 650.252 C 667.644 668.126 680.017 689.728 692.544 703.06 C 713.804 726.181 736.728 740.029 791.184 764.069 C 838.574 784.457 854.885 794.026 862.944 805.749 C 869.158 813.808 870.744 819.153 870.744 832.383 C 870.744 845.716 867.161 854.699 858.282 863.579 C 834.956 886.699 788.969 889.122 755.052 869.350 C 743.226 863.169 724.893 845.192 715.602 831.246 L 709.286 821.881 L 678.642 839.652 C 661.984 849.633 644.007 860.023 639.378 862.630 L 630.908 867.365 C 629.833 868.113 634.643 896.986 643.419 916.142 C 667.440 953.189 721.999 974.142 763.932 981.689 C 783.124 984.758 826.076 985.323 844.050 982.714 C 903.377 973.936 945.203 946.248 962.359 882.152 C 976.513 828.336 971.469 773.564 949.071 739.723 C 929.196 710.604 895.458 690.832 820.920 669.467 C 780.456 652.002 767.123 644.046 760.196 628.757 C 756.716 621.724 755.489 616.371 755.489 608.826 C 755.284 581.770 775.978 565.829 807.793 568.046 C 829.462 569.121 843.718 576.565 856.949 594.334 C 861.682 602.085 865.885 608.107 867.058 607.388 C 894.114 590.03 939.588 558.883 939.178 557.294 C 938.046 552.864 923.527 534.031 915.055 523.743 C 895.872 504.259 876.049 493.307 849.199 486.067 C 830.485 481.254 787.789 480.185 769.309 483.151 Z"/>
  </symbol>
</svg>
