<?xml version="1.0" encoding="UTF-8"?>
<svg id="bgMiddle" xmlns="http://www.w3.org/2000/svg" viewBox="0 0 1920 1080">
  <path d="M1486.29,549.48v-54.32h-16.55v-9.36h42.47v9.36h-16.55v54.32h-9.37Z"/>
  <path d="M1861.36,382.87c-6.88,0-11.97-1.07-15.27-3.21-3.3-2.14-4.94-6.07-4.94-11.79,0-2.61.09-4.94.27-7.01.18-2.06.36-4.11.54-6.14.18-2.03.27-4.24.27-6.63,0-1.3-.43-2.57-1.3-3.8-.87-1.23-2.41-2.26-4.62-3.1-2.21-.83-5.34-1.25-9.4-1.25v-7.61c4.06,0,7.19-.42,9.4-1.25,2.21-.83,3.75-1.86,4.62-3.1.87-1.23,1.3-2.5,1.3-3.8,0-2.32-.09-4.51-.27-6.57-.18-2.06-.36-4.15-.54-6.25-.18-2.1-.27-4.42-.27-6.95,0-5.72,1.65-9.65,4.94-11.79,3.3-2.14,8.38-3.21,15.27-3.21h7.5v6.85h-5c-3.33,0-5.89.27-7.66.81-1.78.54-2.99,1.45-3.64,2.72-.65,1.27-.98,2.99-.98,5.16,0,2.97.09,6,.27,9.07.18,3.08.27,6.29.27,9.62,0,3.84-.76,6.68-2.28,8.53-1.52,1.85-4.2,3.1-8.04,3.75v.43c3.84.65,6.52,1.9,8.04,3.75,1.52,1.85,2.28,4.69,2.28,8.53,0,3.48-.09,6.68-.27,9.62-.18,2.93-.27,5.96-.27,9.07,0,2.17.33,3.89.98,5.16.65,1.27,1.86,2.17,3.64,2.72,1.77.54,4.33.81,7.66.81h5v6.85h-7.5Z"/>
  <path d="M663.71,354.26c-3.99,0-7.55-.43-10.7-1.3s-5.96-2.05-8.42-3.53c-2.46-1.48-4.53-3.13-6.19-4.94l5.87-8.04c2.32,2.1,5.02,3.89,8.09,5.38,3.08,1.49,6.5,2.23,10.27,2.23,2.83,0,5.36-.42,7.61-1.25,2.24-.83,4-2.03,5.27-3.59,1.27-1.56,1.9-3.42,1.9-5.6,0-2.39-.73-4.46-2.17-6.19-1.45-1.74-3.84-3.1-7.17-4.07-3.33-.98-7.86-1.47-13.58-1.47v-9.13c5,0,8.98-.49,11.95-1.47,2.97-.98,5.14-2.28,6.52-3.91,1.38-1.63,2.06-3.53,2.06-5.7,0-2.9-1.11-5.16-3.31-6.79-2.21-1.63-5.16-2.44-8.86-2.44-2.97,0-5.76.6-8.37,1.79-2.61,1.2-5.07,2.77-7.39,4.73l-6.52-7.71c3.19-2.61,6.68-4.71,10.49-6.3,3.8-1.59,7.91-2.39,12.33-2.39,4.71,0,8.89.71,12.55,2.12,3.66,1.41,6.52,3.48,8.58,6.19,2.06,2.72,3.1,6.03,3.1,9.94s-1.27,7.06-3.8,9.67c-2.54,2.61-5.94,4.67-10.21,6.19v.43c3.04.73,5.81,1.85,8.31,3.37,2.5,1.52,4.47,3.44,5.92,5.76,1.45,2.32,2.17,5,2.17,8.04,0,4.2-1.21,7.81-3.64,10.81-2.43,3.01-5.61,5.29-9.56,6.85-3.95,1.56-8.31,2.34-13.09,2.34Z"/>
  <path d="M1552.84,326.32c-4.56,0-8.49-.89-11.79-2.66-3.3-1.77-5.83-4.18-7.61-7.23-1.78-3.04-2.66-6.41-2.66-10.11s.72-6.63,2.17-9.24c1.45-2.61,3.31-4.93,5.6-6.95,2.28-2.03,4.69-3.89,7.23-5.6,2.53-1.7,4.94-3.37,7.23-5s4.15-3.39,5.6-5.27c1.45-1.88,2.17-4.02,2.17-6.41,0-1.88-.42-3.48-1.25-4.78-.83-1.3-2.26-1.96-4.29-1.96-1.88,0-3.41.83-4.56,2.5-1.16,1.67-1.74,3.88-1.74,6.63,0,3.12.82,6.39,2.45,9.83,1.63,3.44,3.78,6.9,6.46,10.38,2.68,3.48,5.67,6.76,8.96,9.83,3.29,3.08,6.61,5.81,9.94,8.2,2.46,1.88,4.87,3.48,7.23,4.78,2.35,1.3,4.54,2.25,6.57,2.83l-3.15,10.21c-2.9-.8-5.85-2.01-8.86-3.64-3.01-1.63-6.1-3.68-9.29-6.14-3.98-2.97-7.82-6.37-11.52-10.21-3.69-3.84-6.99-7.88-9.89-12.12-2.9-4.24-5.18-8.4-6.85-12.5-1.67-4.09-2.5-7.88-2.5-11.35,0-3.26.69-6.23,2.06-8.91,1.38-2.68,3.29-4.82,5.76-6.41,2.46-1.59,5.4-2.39,8.8-2.39,4.85,0,8.64,1.38,11.35,4.13,2.72,2.75,4.08,6.41,4.08,10.98,0,2.9-.67,5.52-2.01,7.88-1.34,2.35-3.06,4.51-5.16,6.47-2.1,1.96-4.33,3.82-6.68,5.6-2.35,1.78-4.6,3.57-6.74,5.38-2.14,1.81-3.88,3.73-5.21,5.76-1.34,2.03-2.01,4.27-2.01,6.74,0,2.25.51,4.18,1.52,5.81,1.01,1.63,2.41,2.92,4.18,3.86,1.77.94,3.75,1.41,5.92,1.41,2.46,0,4.83-.72,7.12-2.17,2.28-1.45,4.44-3.33,6.46-5.65,2.46-2.97,4.6-6.39,6.41-10.27,1.81-3.87,3.22-8.13,4.24-12.77h11.52c-1.38,5.29-3.17,10.36-5.38,15.21-2.21,4.85-4.91,9.38-8.09,13.58-2.97,3.48-6.39,6.3-10.27,8.48-3.88,2.17-8.39,3.26-13.53,3.26Z"/>
  <path d="M931.59,711.96c-.51-2.97-.29-5.58.65-7.82.94-2.24,2.23-4.25,3.86-6.03,1.63-1.77,3.33-3.42,5.11-4.94,1.77-1.52,3.28-3.08,4.51-4.67,1.23-1.59,1.85-3.33,1.85-5.22,0-2.68-.89-4.8-2.66-6.36-1.78-1.56-4.22-2.34-7.33-2.34-2.46,0-4.73.51-6.79,1.52-2.06,1.02-4,2.39-5.81,4.13l-7.06-6.52c2.54-2.75,5.52-5,8.96-6.74,3.44-1.74,7.3-2.61,11.57-2.61,4.06,0,7.68.67,10.87,2.01,3.19,1.34,5.71,3.3,7.55,5.87,1.85,2.57,2.77,5.74,2.77,9.51,0,2.9-.62,5.38-1.85,7.44-1.23,2.06-2.77,3.95-4.62,5.65-1.85,1.7-3.62,3.35-5.32,4.94-1.7,1.59-3.1,3.35-4.18,5.27-1.09,1.92-1.45,4.22-1.09,6.9h-10.97ZM937.67,739.78c-2.61,0-4.84-.91-6.68-2.72-1.85-1.81-2.77-4.16-2.77-7.06s.92-5.22,2.77-6.95c1.85-1.74,4.07-2.61,6.68-2.61s4.92.87,6.74,2.61c1.81,1.74,2.72,4.06,2.72,6.95s-.91,5.25-2.72,7.06c-1.81,1.81-4.06,2.72-6.74,2.72Z"/>
  <path d="M120.97,992.44v-13.09h61.82v13.09h-61.82ZM123.76,964.04v-13.09h61.82v13.09h-61.82ZM128.21,1018.48l11.14-90.51h11.7l-11,90.51h-11.84ZM154.53,1018.48l11.14-90.51h11.7l-11,90.51h-11.84Z"/>
  <path d="M967.33,282.02v-63.69h9.85l13.97,35.79,4.84,13.56h.16c-.16-3.32-.42-6.88-.77-10.68-.35-3.8-.52-7.49-.52-11.07v-27.6h8.96v63.69h-9.85l-13.97-35.79-4.84-13.65h-.16c.16,3.38.42,6.92.77,10.63.35,3.71.53,7.35.53,10.92v27.89h-8.96Z"/>
  <path d="M508.67,375.35c-3.5,0-6.76-.82-9.77-2.46-3.02-1.64-5.46-4.01-7.35-7.11-1.88-3.1-2.83-6.82-2.83-11.18s.94-8.17,2.83-11.26c1.88-3.1,4.33-5.46,7.35-7.11,3.01-1.64,6.27-2.46,9.77-2.46s6.75.82,9.77,2.46c3.01,1.64,5.46,4.01,7.35,7.11,1.88,3.1,2.83,6.85,2.83,11.26s-.94,8.09-2.83,11.18c-1.88,3.1-4.33,5.46-7.35,7.11-3.02,1.64-6.27,2.46-9.77,2.46ZM508.67,367.76c2.15,0,4.01-.54,5.57-1.62,1.56-1.08,2.75-2.61,3.55-4.6.81-1.99,1.21-4.31,1.21-6.94s-.4-4.95-1.21-6.94c-.81-1.99-1.99-3.54-3.55-4.64-1.56-1.1-3.42-1.66-5.57-1.66s-4,.55-5.53,1.66c-1.53,1.1-2.72,2.65-3.55,4.64-.84,1.99-1.25,4.31-1.25,6.94s.42,4.95,1.25,6.94c.83,1.99,2.02,3.53,3.55,4.6,1.53,1.08,3.38,1.62,5.53,1.62Z"/>
  <path d="M666.13,688.65c-4.04,0-7.7-.82-10.98-2.46-3.28-1.64-5.89-4.02-7.83-7.15-1.94-3.12-2.91-6.86-2.91-11.22s.97-8.01,2.91-11.1c1.94-3.1,4.47-5.48,7.59-7.15,3.12-1.67,6.46-2.5,10.01-2.5,3.93,0,7.25.81,9.97,2.42,2.72,1.62,4.79,3.84,6.22,6.66,1.43,2.83,2.14,6.07,2.14,9.73,0,.92-.03,1.8-.08,2.66-.05.86-.13,1.53-.24,2.02h-31.81v-6.54h25.76l-1.78,2.02c0-3.93-.88-6.89-2.62-8.88-1.75-1.99-4.19-2.99-7.31-2.99-2.21,0-4.19.52-5.93,1.57-1.75,1.05-3.14,2.58-4.16,4.6-1.02,2.02-1.53,4.48-1.53,7.39,0,3.12.58,5.69,1.74,7.71,1.16,2.02,2.77,3.53,4.84,4.52,2.07,1,4.48,1.49,7.23,1.49,2.1,0,4.04-.29,5.81-.89,1.78-.59,3.55-1.4,5.33-2.42l3.15,5.81c-2.1,1.35-4.48,2.46-7.15,3.35-2.66.89-5.45,1.33-8.36,1.33Z"/>
  <path d="M1555.94,743.99c-4.63,0-7.99-1.69-10.09-5.07-2.1-3.38-3.15-8.16-3.15-14.34v-29.65h9.29v28.19c0,3.84.55,6.67,1.66,8.49,1.1,1.82,3.03,2.73,5.77,2.73,1.83,0,3.51-.54,5.05-1.61,1.53-1.07,3.16-2.91,4.88-5.51v-32.28h9.29v47.89h-7.59l-.73-7.61h-.32c-1.88,2.6-3.96,4.71-6.22,6.34s-4.87,2.44-7.83,2.44Z"/>
  <path d="M1270.78,502.34c-3.5,0-6.76-.99-9.77-2.97-3.02-1.98-5.46-4.84-7.35-8.58-1.88-3.74-2.83-8.24-2.83-13.51s.94-9.87,2.83-13.61c1.88-3.74,4.33-6.6,7.35-8.58,3.01-1.98,6.27-2.98,9.77-2.98s6.75.99,9.77,2.98c3.01,1.98,5.46,4.84,7.35,8.58,1.88,3.74,2.83,8.27,2.83,13.61s-.94,9.77-2.83,13.51c-1.88,3.74-4.33,6.6-7.35,8.58-3.02,1.98-6.27,2.97-9.77,2.97ZM1270.78,493.17c2.15,0,4.01-.65,5.57-1.95,1.56-1.3,2.75-3.15,3.55-5.56.81-2.4,1.21-5.2,1.21-8.39s-.4-5.98-1.21-8.39c-.81-2.4-1.99-4.27-3.55-5.61-1.56-1.33-3.42-2-5.57-2s-4,.67-5.53,2c-1.53,1.33-2.72,3.2-3.55,5.61-.84,2.41-1.25,5.2-1.25,8.39s.42,5.98,1.25,8.39c.83,2.41,2.02,4.26,3.55,5.56,1.53,1.3,3.38,1.95,5.53,1.95Z"/>
  <path d="M1378.09,363.42c.21-5.53.66-10.6,1.33-15.21.67-4.62,1.63-8.96,2.87-13.02,1.24-4.06,2.84-8.08,4.8-12.05,1.96-3.96,4.35-8.06,7.15-12.29h-27.7v-9.46h37.95v6.83c-3.34,4.55-6.06,8.86-8.16,12.92-2.1,4.06-3.75,8.19-4.97,12.39s-2.09,8.7-2.62,13.51c-.54,4.81-.94,10.27-1.21,16.39h-9.45Z"/>
</svg>