<?xml version="1.0" encoding="UTF-8"?>
<svg id="bgFront" xmlns="http://www.w3.org/2000/svg" viewBox="0 0 1920 1080">
  <g>
    <path d="M104.9,102.02c-4.96,0-8.68-1.5-11.18-4.5-2.5-3-3.75-6.9-3.75-11.7v-26.46h-11.15v-9.96h23.93v36.86c0,2.13.61,3.58,1.82,4.35,1.21.77,2.46,1.15,3.75,1.15.79,0,1.61-.09,2.45-.26.84-.17,1.81-.43,2.9-.78l2.75,9.36c-1.98.59-3.79,1.06-5.42,1.41-1.63.35-3.67.52-6.09.52Z"/>
    <path d="M144.96,102.02c-3.91,0-7.44-.77-10.59-2.3-3.15-1.53-5.64-3.75-7.47-6.65-1.83-2.9-2.75-6.4-2.75-10.52s.93-7.54,2.79-10.44c1.86-2.9,4.27-5.13,7.25-6.69s6.12-2.34,9.44-2.34c3.91,0,7.18.81,9.81,2.42,2.62,1.61,4.59,3.78,5.91,6.5,1.31,2.73,1.97,5.75,1.97,9.07,0,1.09-.06,2.14-.19,3.16-.12,1.02-.24,1.75-.33,2.19h-26.98v-8.32h18.13l-1.78,2.23c0-2.48-.5-4.36-1.49-5.65-.99-1.29-2.53-1.93-4.61-1.93-1.63,0-3.01.35-4.12,1.04-1.11.69-1.97,1.77-2.56,3.23-.59,1.46-.89,3.31-.89,5.54s.38,4.21,1.15,5.65c.77,1.44,1.91,2.49,3.42,3.16,1.51.67,3.41,1,5.68,1,1.49,0,2.94-.19,4.35-.56,1.41-.37,2.93-.93,4.57-1.67l4.16,7.58c-2.23,1.39-4.68,2.45-7.36,3.2-2.67.74-5.18,1.11-7.5,1.11Z"/>
    <path d="M193.71,102.02c-4.06,0-7.31-.69-9.74-2.08-2.43-1.39-4.19-3.33-5.28-5.83-1.09-2.5-1.63-5.41-1.63-8.73v-11.44h-8.92v-9.51l9.51-.45,1.63-11.15h10.55v11.15h14.71v9.96h-14.71v11.22c0,1.73.27,3.11.82,4.12.54,1.02,1.35,1.73,2.42,2.16,1.07.42,2.39.63,3.98.63,1.29,0,2.49-.11,3.6-.33,1.11-.22,2.17-.51,3.16-.85l2.23,9.21c-1.63.45-3.47.88-5.5,1.3-2.03.42-4.31.63-6.84.63Z"/>
  </g>
  <path d="M1642.7,558.32c-3.34,0-6.04-1.09-8.11-3.28-2.07-2.19-3.11-4.83-3.11-7.94s1.04-5.68,3.11-7.9c2.07-2.21,4.78-3.32,8.11-3.32s6.11,1.11,8.16,3.32c2.04,2.22,3.06,4.85,3.06,7.9s-1.02,5.75-3.06,7.94c-2.04,2.19-4.76,3.28-8.16,3.28ZM1635.62,602.86l-3.54-8.46c3.91-1.27,6.8-2.91,8.68-4.92,1.87-2.02,2.75-4.23,2.63-6.65v-11.22l5.35,9.41c-.86.63-1.8,1.12-2.81,1.47s-2.09.52-3.24.52c-1.78,0-3.47-.39-5.05-1.17-1.58-.78-2.86-1.88-3.84-3.32-.98-1.44-1.47-3.19-1.47-5.27,0-2.88,1.05-5.22,3.15-7.03,2.1-1.81,4.65-2.72,7.64-2.72,3.91,0,6.86,1.42,8.85,4.27,1.98,2.85,2.98,6.83,2.98,11.95,0,5.64-1.61,10.44-4.83,14.41-3.22,3.97-8.06,6.88-14.5,8.72Z"/>
  <g>
    <path d="M1697.62,999.03l-40.3-25.7v-11.93l40.3-25.7v15.83l-25.91,15.63v.41l25.91,15.63v15.83Z"/>
    <path d="M1747.79,1017.95l-33.93-89.45h14.6l33.93,89.45h-14.6Z"/>
    <path d="M1778.63,999.03v-15.83l25.91-15.63v-.41l-25.91-15.63v-15.83l40.3,25.7v11.93l-40.3,25.7Z"/>
  </g>
  <path d="M1276.37,672.56l9.64-15.12c4.43,2.61,8.47,4.56,12.12,5.86,3.65,1.3,7.34,1.96,11.08,1.96,2.43,0,4.26-.33,5.47-.98,1.21-.65,1.82-1.63,1.82-2.93,0-1.48-.89-2.74-2.67-3.78-1.78-1.04-4.06-2.04-6.84-3-2.78-.96-5.73-2.04-8.86-3.26-3.13-1.22-6.08-2.74-8.86-4.56-2.78-1.82-5.06-4.13-6.84-6.91-1.78-2.78-2.67-6.21-2.67-10.3,0-4.52,1.22-8.45,3.65-11.79,2.43-3.34,5.88-5.95,10.36-7.82,4.47-1.87,9.75-2.8,15.84-2.8s11.32,1.06,15.71,3.19c4.39,2.13,8.23,4.89,11.53,8.28l-10.95,12.77c-3.13-2.09-6.04-3.65-8.73-4.69-2.69-1.04-5.69-1.56-8.99-1.56-2.35,0-4.11.35-5.28,1.04-1.17.7-1.76,1.74-1.76,3.13,0,1.22.89,2.28,2.67,3.19,1.78.91,4.06,1.82,6.84,2.74,2.78.91,5.74,1.98,8.86,3.19,3.13,1.22,6.08,2.74,8.86,4.56,2.78,1.82,5.06,4.09,6.84,6.78,1.78,2.69,2.67,6.04,2.67,10.04,0,4.35-1.2,8.3-3.58,11.86-2.39,3.56-5.95,6.39-10.69,8.47-4.74,2.09-10.67,3.13-17.79,3.13-2.87,0-6.08-.41-9.64-1.24-3.56-.82-7.08-2.02-10.56-3.58-3.48-1.56-6.56-3.52-9.25-5.86ZM1301.26,613.91v-23.2h14.6v23.2h-14.6ZM1301.26,673.86h14.6v28.15h-14.6v-28.15Z"/>
  <path d="M674.53,1058.76h-41.57l28.65-101.93c.78-2.5,1.25-4.46,1.41-5.87.15-1.41-.04-2.43-.59-3.05-.55-.62-1.53-.94-2.94-.94-2.35,0-4.54,1.06-6.58,3.17-2.04,2.11-4.15,5.99-6.34,11.63l-5.4,14.33h-4.46l6.58-18.32c2.97-8.3,7.05-14.4,12.21-18.32,5.17-3.91,11.82-5.87,19.96-5.87s14.29,1.68,17.97,5.05c3.68,3.37,5.83,7.6,6.46,12.68.62,5.09.23,10.14-1.17,15.15l-24.19,92.3ZM679.93,1025.17c6.42-19.1,12.33-34.64,17.73-46.62,5.4-11.98,10.65-21.26,15.74-27.83,5.09-6.58,10.33-11.08,15.74-13.5,5.4-2.43,11.23-3.64,17.5-3.64,7.83,0,13.54,1.57,17.15,4.7,3.6,3.13,5.52,7.4,5.75,12.8.23,5.4-.75,11.39-2.94,17.97l-23.25,69.76c-1.57,4.39-1.76,7.13-.59,8.22,1.17,1.1,2.31,1.64,3.41,1.64,1.41,0,3.21-.82,5.4-2.47,2.19-1.64,4.54-5.75,7.05-12.33l4.93-13.15h4.46l-5.87,17.15c-3.45,9.86-8.34,16.36-14.68,19.49-6.34,3.13-12.65,4.7-18.91,4.7-10.02,0-17.07-2.82-21.14-8.46-2.35-3.29-3.64-7.4-3.88-12.33-.24-4.93.98-11.47,3.64-19.61l20.2-60.83c.94-2.82,1.53-5.17,1.76-7.05.24-1.88.2-3.29-.12-4.23-.32-.94-1.02-1.41-2.11-1.41-3.13,0-6.97,3.25-11.51,9.75-4.54,6.5-9.28,15.11-14.21,25.84-4.93,10.73-9.71,22.55-14.33,35.46-4.62,12.92-8.65,25.88-12.1,38.87l5.17-32.88ZM716.57,871.34c4.7,0,8.57.86,11.63,2.58,3.05,1.72,5.75,3.72,8.1,5.99,2.35,2.27,4.73,4.27,7.16,5.99,2.43,1.72,5.28,2.58,8.57,2.58s6.07-1.06,8.81-3.17c2.74-2.11,5.44-5.6,8.1-10.45l4.23,1.17c-4.54,13.62-10.49,23.41-17.85,29.36-7.36,5.95-14.72,8.93-22.08,8.93-4.7,0-8.57-.86-11.63-2.58-3.05-1.72-5.75-3.72-8.1-5.99-2.35-2.27-4.74-4.26-7.16-5.99-2.43-1.72-5.29-2.58-8.57-2.58s-6.07,1.02-8.81,3.05c-2.74,2.04-5.44,5.56-8.1,10.57l-4.23-1.17c4.54-13.62,10.49-23.41,17.85-29.36,7.36-5.95,14.72-8.92,22.08-8.92Z"/>
  <path d="M168.14,535.74v-17.29l28.29-17.06v-.45l-28.29-17.06v-17.29l44,28.06v13.02l-44,28.06Z"/>
  <path d="M264.69,399.46c-5.11,0-10.07-1.02-14.87-3.06-4.81-2.04-9.11-5.15-12.9-9.32-3.79-4.17-6.79-9.49-9-15.96-2.21-6.47-3.32-14.13-3.32-22.98,0-11.83,1.79-21.45,5.36-28.85s8.3-12.83,14.17-16.28,12.26-5.17,19.15-5.17,12.19,1.4,16.41,4.21c4.21,2.81,7.32,6.6,9.32,11.36,2,4.77,3,10.13,3,16.09v38.3h-11.49l-1.53-6.13h-.51c-1.53,2.3-3.49,4.15-5.87,5.55-2.38,1.4-5.32,2.11-8.81,2.11-3.15,0-5.94-.85-8.36-2.55-2.43-1.7-4.34-3.96-5.75-6.77-1.4-2.81-2.11-5.83-2.11-9.06,0-4.68,1.3-8.49,3.89-11.43,2.6-2.94,6.23-5.23,10.92-6.89,4.68-1.66,10.13-2.87,16.34-3.64v-2.04c0-2.81-.6-5.45-1.79-7.92-1.19-2.47-2.96-4.45-5.3-5.94-2.34-1.49-5.3-2.23-8.87-2.23-2.64,0-5.32.66-8.04,1.98-2.72,1.32-5.26,3.45-7.6,6.38-2.34,2.94-4.21,6.81-5.62,11.62-1.4,4.81-2.11,10.75-2.11,17.81,0,8.77,1.28,15.94,3.83,21.51,2.55,5.58,5.83,9.68,9.83,12.32,4,2.64,8.17,3.96,12.51,3.96,3.74,0,6.83-.43,9.26-1.28,2.43-.85,4.83-1.96,7.21-3.32l6.13,10.72c-3.66,2.04-7.32,3.7-10.98,4.98-3.66,1.28-7.83,1.92-12.51,1.92ZM268.78,355.29c1.7,0,3.13-.34,4.28-1.02,1.15-.68,2.28-1.45,3.38-2.3v-9.96c-4.94.77-8.34,1.75-10.21,2.94-1.87,1.19-2.81,3.02-2.81,5.49,0,1.45.47,2.62,1.4,3.51.94.89,2.25,1.34,3.96,1.34Z"/>
  <path d="M653.38,501.17v-43.16h12.17l1.12,9.15h.34c2.07-3.57,4.59-6.16,7.55-7.77,2.96-1.61,6.06-2.42,9.28-2.42,2.01,0,3.58.16,4.7.47,1.12.32,2.29.73,3.5,1.25l-2.93,12.43c-1.27-.4-2.45-.7-3.54-.91-1.09-.2-2.42-.3-3.97-.3-2.48,0-4.92.73-7.34,2.2s-4.43,4.01-6.04,7.64v21.41h-14.85Z"/>
  <path d="M1055,381.55v-58.35h12.08l1.04,3.97h.34c1.67-1.5,3.55-2.7,5.65-3.63,2.1-.92,4.24-1.38,6.43-1.38,3.51,0,6.53.91,9.06,2.72,2.53,1.81,4.5,4.36,5.91,7.64,1.41,3.28,2.12,7.14,2.12,11.57,0,4.95-.88,9.16-2.63,12.65-1.76,3.48-4.03,6.13-6.82,7.94s-5.77,2.72-8.93,2.72c-1.84,0-3.58-.38-5.22-1.12s-3.15-1.81-4.53-3.19h-.35l.69,6.56v11.91h-14.85ZM1075.71,355.31c1.21,0,2.32-.35,3.32-1.04s1.83-1.84,2.46-3.45c.63-1.61.95-3.8.95-6.56,0-2.36-.25-4.27-.73-5.74-.49-1.47-1.19-2.55-2.11-3.24-.92-.69-2.1-1.04-3.54-1.04-1.15,0-2.22.23-3.19.69-.98.46-1.99,1.27-3.02,2.42v15.88c.92.75,1.88,1.28,2.89,1.6,1.01.32,2,.47,2.98.47Z"/>
</svg>