<?xml version="1.0" encoding="UTF-8"?>
<svg id="bgBack" xmlns="http://www.w3.org/2000/svg" viewBox="0 0 1920 1080">
  <g>
    <path d="M130.69,800.22l-20.29-56.37h19.39l7.33,24.58c.83,2.78,1.62,5.64,2.37,8.57.75,2.93,1.5,5.94,2.25,9.02h.45c.83-3.08,1.6-6.09,2.31-9.02.71-2.93,1.48-5.79,2.31-8.57l7.33-24.58h18.49l-19.62,56.37h-22.32Z"/>
    <path d="M199.69,801.58c-3.91,0-7.22-.81-9.92-2.42-2.71-1.62-4.77-3.74-6.2-6.37-1.43-2.63-2.14-5.49-2.14-8.57,0-6.31,2.72-11.14,8.17-14.49,5.45-3.34,14.6-5.36,27.45-6.03-.23-1.35-.79-2.46-1.69-3.33-.9-.86-2.12-1.5-3.66-1.92-1.54-.41-3.36-.62-5.47-.62-1.58,0-3.2.17-4.85.51-1.65.34-3.4.87-5.24,1.58-1.84.72-3.89,1.6-6.14,2.65l-6.76-12.63c2.86-1.58,5.75-2.93,8.68-4.06,2.93-1.13,5.9-1.97,8.91-2.54,3.01-.56,6.09-.85,9.25-.85,5.34,0,9.98.92,13.92,2.76,3.95,1.84,7.01,4.7,9.19,8.57,2.18,3.87,3.27,8.89,3.27,15.05v31.34h-15.78l-1.35-5.86h-.45c-2.78,2.03-5.79,3.74-9.02,5.13-3.23,1.39-6.62,2.09-10.15,2.09ZM206,786.69c2.25,0,4.28-.43,6.09-1.3,1.8-.86,3.46-1.86,4.96-2.99v-7.22c-4.59.15-8.12.56-10.6,1.24-2.48.68-4.19,1.56-5.13,2.65-.94,1.09-1.41,2.27-1.41,3.55,0,.83.23,1.56.68,2.2.45.64,1.13,1.11,2.03,1.41.9.3,2.03.45,3.38.45Z"/>
    <path d="M254.71,800.22v-56.37h15.9l1.47,11.95h.45c2.71-4.66,5.99-8.04,9.87-10.15,3.87-2.1,7.91-3.16,12.12-3.16,2.63,0,4.68.21,6.14.62,1.46.41,2.99.96,4.57,1.63l-3.83,16.23c-1.65-.52-3.2-.92-4.62-1.18-1.43-.26-3.16-.39-5.19-.39-3.23,0-6.43.96-9.58,2.88-3.16,1.92-5.79,5.24-7.89,9.98v27.96h-19.39Z"/>
  </g>
  <path d="M157.24,243.57c-4.66,0-8.23-1.75-10.71-5.24-2.48-3.49-3.72-8.32-3.72-14.49s1.73-11.88,5.19-16.69c3.46-4.81,8.75-8.79,15.9-11.95l4.85,10.03c-4.36,1.8-7.61,4.02-9.75,6.65-2.14,2.63-3.21,5.83-3.21,9.58l.11,11.5-6.88-9.81c1.05-.83,2.42-1.56,4.12-2.2,1.69-.64,3.25-.96,4.68-.96,3.31,0,5.99,1.01,8.06,3.04,2.07,2.03,3.1,4.74,3.1,8.12,0,3.76-1.11,6.76-3.33,9.02-2.22,2.25-5.02,3.38-8.4,3.38ZM188.81,243.57c-4.66,0-8.23-1.75-10.71-5.24-2.48-3.49-3.72-8.32-3.72-14.49s1.73-11.88,5.19-16.69c3.46-4.81,8.75-8.79,15.9-11.95l4.85,10.03c-4.36,1.8-7.61,4.02-9.75,6.65-2.14,2.63-3.21,5.83-3.21,9.58l.11,11.5-6.88-9.81c1.05-.83,2.42-1.56,4.12-2.2,1.69-.64,3.25-.96,4.68-.96,3.31,0,5.99,1.01,8.06,3.04,2.07,2.03,3.1,4.74,3.1,8.12,0,3.76-1.11,6.76-3.33,9.02-2.22,2.25-5.02,3.38-8.4,3.38Z"/>
  <path d="M516.28,45.57l26.59,70.46c1.1,2.63,2.25,4.47,3.46,5.52,1.21,1.05,2.29,1.62,3.24,1.69v2.25c-2.34-.15-5.15-.24-8.4-.28-3.26-.04-6.57-.06-9.94-.06s-6.85.02-10,.06c-3.15.04-5.68.13-7.58.28v-2.25c3.74-.15,6.12-.81,7.14-1.97,1.02-1.16.8-3.66-.66-7.5l-18.24-51.19,2.2-3.38-16.04,42.5c-2.2,6.01-3.28,10.54-3.24,13.59.04,3.04.95,5.09,2.75,6.14,1.79,1.05,4.16,1.65,7.09,1.8v2.25c-2.56-.15-4.93-.24-7.09-.28-2.16-.04-4.49-.06-6.98-.06-1.47,0-2.95.02-4.45.06-1.5.04-2.8.13-3.9.28v-2.25c1.61-.3,3.24-1.35,4.89-3.16,1.65-1.8,3.28-4.92,4.89-9.36l24.72-65.17c1.46.15,3.06.23,4.78.23s3.31-.07,4.78-.23ZM521.99,93.03v2.25h-32.74l1.1-2.25h31.64Z"/>
  <path d="M1409.06,120.06V23.1h29.97v10.15h-17.15v76.66h17.15v10.15h-29.97Z"/>
  <path d="M696.32,219.86l37.2-98.09h16.01l-37.21,98.09h-16.01Z"/>
  <path d="M1183.16,819.65c-4.58,0-8.96-.77-13.13-2.31-4.17-1.54-7.88-3.87-11.11-6.99-3.23-3.12-5.79-7.03-7.67-11.73-1.88-4.7-2.82-10.16-2.82-16.4,0-8.19,1.62-15.16,4.85-20.91,3.23-5.75,7.55-10.13,12.96-13.13,5.41-3.01,11.42-4.51,18.04-4.51,4.74,0,9.04.96,12.91,2.88,3.87,1.92,7.08,4.12,9.64,6.6l-10.6,11.95c-1.65-1.5-3.44-2.67-5.36-3.49-1.92-.83-4.11-1.24-6.59-1.24-3.01,0-5.71.85-8.12,2.54-2.41,1.69-4.32,4.12-5.75,7.27-1.43,3.16-2.14,6.95-2.14,11.39s.71,8.48,2.14,11.67c1.43,3.2,3.42,5.62,5.97,7.27,2.55,1.65,5.49,2.48,8.79,2.48,2.41,0,4.6-.56,6.6-1.69,1.99-1.13,3.78-2.52,5.36-4.17l10.6,11.73c-3.01,3.61-6.62,6.31-10.82,8.12-4.21,1.8-8.79,2.71-13.75,2.71Z"/>
  <path d="M117.15,464.04l-46.34-29.56v-13.71l46.34-29.56v18.21l-29.79,17.97v.47l29.79,17.97v18.21Z"/>
  <path d="M985.17,44.1c8.27,0,15.48,1.62,21.65,4.85,6.16,3.23,10.95,7.87,14.38,13.92,3.42,6.05,5.13,13.4,5.13,22.04s-1.75,15.78-5.24,22.1c-3.49,6.31-8.36,11.24-14.6,14.77-6.24,3.53-13.38,5.3-21.42,5.3s-15.39-1.62-21.59-4.85c-6.2-3.23-11.01-7.89-14.43-13.98-3.42-6.09-5.13-13.42-5.13-21.98s1.79-15.78,5.36-22.1c3.57-6.31,8.44-11.24,14.6-14.77,6.16-3.53,13.26-5.3,21.31-5.3ZM1026.32,122.8l2.03.56c-.53,4.43-1.45,8.3-2.76,11.61-1.32,3.31-3.06,5.82-5.24,7.55-1.65,1.28-3.74,2.29-6.26,3.04-2.52.75-5.21,1.13-8.06,1.13-4.21,0-8.33-.62-12.34-1.86-4.02-1.24-8.06-2.8-12.12-4.68-4.06-1.88-8.31-3.68-12.74-5.41-.45-.15-.94-.32-1.46-.51-.53-.19-.94-.28-1.24-.28-1.43.75-2.99,1.37-4.68,1.86-1.69.49-3.29.73-4.79.73s-2.76-.25-3.78-.73c-1.01-.49-1.52-1.3-1.52-2.42,0-2.18,2.07-3.27,6.2-3.27,2.63,0,5.49.6,8.57,1.8,2.78-.75,5.2-1.6,7.27-2.54,2.07-.94,4.17-1.82,6.31-2.65,2.14-.83,4.75-1.35,7.84-1.58l.11,1.8c-2.41.23-4.47.66-6.2,1.3-1.73.64-3.48,1.33-5.24,2.09-1.77.75-3.82,1.47-6.14,2.14,5.94.3,11.22.56,15.84.79,4.62.23,8.83.32,12.63.28,3.79-.04,7.35-.32,10.65-.85,4.43-.75,7.93-1.86,10.48-3.33,2.55-1.47,4.77-3.66,6.65-6.6ZM984.71,46.13c-3.99,0-7.44,1.69-10.37,5.07-2.93,3.38-5.21,8.04-6.82,13.98-1.62,5.94-2.42,12.82-2.42,20.63s.92,14.9,2.76,20.8c1.84,5.9,4.3,10.45,7.38,13.64,3.08,3.2,6.5,4.79,10.26,4.79,3.98,0,7.46-1.69,10.43-5.07,2.97-3.38,5.24-8.06,6.82-14.04,1.58-5.98,2.37-12.83,2.37-20.58s-.9-14.99-2.71-20.86c-1.8-5.86-4.27-10.39-7.38-13.59-3.12-3.19-6.56-4.79-10.32-4.79Z"/>
  <path d="M1688.92,346.04l-5.17-3.55,7.83-12.68-12.36-5.49,1.86-5.73,13.08,3.47.97-14.37h6.3l.97,14.37,13.08-3.47,1.86,5.73-12.36,5.49,7.83,12.68-5.17,3.55-9.37-11.47-9.37,11.47Z"/>
  <g>
    <path d="M410.83,645.46c-7.14-6.69-12.82-14.36-17.02-23-4.21-8.64-6.31-18.19-6.31-28.64s2.1-20.1,6.31-28.75c4.21-8.64,9.88-16.27,17.02-22.89l10.71,8.34c-6.39,6.61-10.99,13.3-13.81,20.07-2.82,6.76-4.23,14.51-4.23,23.22s1.41,16.37,4.23,23.17c2.82,6.8,7.42,13.51,13.81,20.12l-10.71,8.34Z"/>
    <path d="M461.11,645.46l-10.71-8.34c6.39-6.61,10.99-13.32,13.81-20.12,2.82-6.8,4.23-14.52,4.23-23.17s-1.41-16.46-4.23-23.22c-2.82-6.76-7.42-13.45-13.81-20.07l10.71-8.34c7.14,6.61,12.81,14.24,17.02,22.89,4.21,8.64,6.31,18.23,6.31,28.75s-2.11,19.99-6.31,28.64c-4.21,8.64-9.88,16.31-17.02,23Z"/>
  </g>
  <path d="M1698.29,172.67v-10.15h14.19v-76.66h-14.19v-10.15h24.79v96.96h-24.79Z"/>
  <path d="M382.35,332.49v-73.28h16.05v57.05h25.86v16.23h-41.91Z"/>
  <path d="M458.56,877.46v-56.37h14.43l1.35,6.76h.45c.9-2.18,2.31-4.08,4.23-5.69,1.92-1.62,4.49-2.42,7.72-2.42,2.33,0,4.34.77,6.03,2.31,1.69,1.54,2.84,3.78,3.44,6.71.83-2.4,2.25-4.51,4.28-6.31s4.66-2.71,7.89-2.71c4.06,0,7.18,1.67,9.36,5.02,2.18,3.35,3.27,7.84,3.27,13.47v39.23h-18.26v-37.88c0-2.25-.64-3.38-1.92-3.38-.75,0-1.43.34-2.03,1.01-.6.68-1.17,1.77-1.69,3.27v36.98h-14.66v-37.88c0-1.2-.19-2.07-.56-2.59-.38-.53-.94-.79-1.69-.79-.68,0-1.28.34-1.8,1.01-.53.68-1.05,1.77-1.58,3.27v36.98h-18.26Z"/>
  <path d="M1388.71,957.44v-56.37h14.43l1.35,6.76h.45c.9-2.18,2.31-4.08,4.23-5.69,1.92-1.62,4.49-2.42,7.72-2.42,2.33,0,4.34.77,6.03,2.31,1.69,1.54,2.84,3.78,3.44,6.71.83-2.4,2.25-4.51,4.28-6.31s4.66-2.71,7.89-2.71c4.06,0,7.18,1.67,9.36,5.02,2.18,3.35,3.27,7.84,3.27,13.47v39.23h-18.26v-37.88c0-2.25-.64-3.38-1.92-3.38-.75,0-1.43.34-2.03,1.01-.6.68-1.17,1.77-1.69,3.27v36.98h-14.66v-37.88c0-1.2-.19-2.07-.56-2.59-.38-.53-.94-.79-1.69-.79-.68,0-1.28.34-1.8,1.01-.53.68-1.05,1.77-1.58,3.27v36.98h-18.26Z"/>
  <path d="M1230.64,224.19v-30.66h-15.92v-11.23h30.33v41.89h-14.41ZM1237.34,176.6c-2.68,0-4.89-.77-6.62-2.3-1.73-1.54-2.6-3.56-2.6-6.07s.87-4.57,2.6-6.16c1.73-1.59,3.94-2.39,6.62-2.39s4.89.8,6.62,2.39c1.73,1.59,2.6,3.64,2.6,6.16s-.87,4.54-2.6,6.07c-1.73,1.54-3.94,2.3-6.62,2.3Z"/>
  <path d="M1076.98,568.78c-4.81,0-9.7-.85-14.66-2.54-4.96-1.69-9.25-3.7-12.85-6.03l8.12-11.95c3.53,2.1,7.2,3.68,10.99,4.73,3.79,1.05,7.5,1.58,11.11,1.58,2.48,0,4.26-.32,5.35-.96,1.09-.64,1.63-1.45,1.63-2.42,0-.68-.21-1.24-.62-1.69-.41-.45-1.09-.85-2.03-1.18-.94-.34-2.2-.68-3.78-1.01s-3.57-.77-5.98-1.3c-7.74-1.73-13.21-4.08-16.4-7.05-3.2-2.97-4.79-6.63-4.79-10.99,0-5.56,2.42-10,7.27-13.3,4.85-3.31,11.37-4.96,19.56-4.96,5.34,0,10.09.85,14.26,2.54,4.17,1.69,7.76,3.48,10.77,5.35l-8.57,11.5c-2.93-1.73-5.98-3.02-9.13-3.89-3.16-.86-6.2-1.3-9.13-1.3-1.2,0-2.24.11-3.1.34-.87.23-1.54.58-2.03,1.07s-.73,1.07-.73,1.75c0,1.2.86,2.03,2.59,2.48,1.73.45,4.77,1.2,9.13,2.25,5.64,1.28,10.05,2.74,13.25,4.4,3.19,1.65,5.43,3.59,6.71,5.81,1.28,2.22,1.92,4.9,1.92,8.06,0,3.53-1.09,6.71-3.27,9.53-2.18,2.82-5.41,5.06-9.7,6.71s-9.58,2.48-15.9,2.48Z"/>
  <path d="M1783.57,619.02v-10.15h4.17c2.86,0,5.02-.17,6.48-.51,1.47-.34,2.48-1.01,3.04-2.03s.85-2.5.85-4.45c0-2.86-.06-5.69-.17-8.51-.11-2.82-.17-5.84-.17-9.08,0-4.51.92-7.72,2.76-9.64,1.84-1.92,4.83-3.21,8.96-3.89v-.45c-4.13-.68-7.12-1.97-8.96-3.89-1.84-1.92-2.76-5.13-2.76-9.64,0-3.31.06-6.35.17-9.13.11-2.78.17-5.6.17-8.46,0-1.95-.28-3.44-.85-4.45s-1.58-1.69-3.04-2.03c-1.47-.34-3.63-.51-6.48-.51h-4.17v-10.15h9.36c7.37,0,12.72,1.18,16.07,3.55,3.34,2.37,5.02,6.67,5.02,12.91,0,2.63-.1,4.87-.28,6.71-.19,1.84-.39,3.65-.62,5.41-.23,1.77-.34,3.82-.34,6.14,0,1.28.45,2.52,1.35,3.72.9,1.2,2.46,2.22,4.68,3.04,2.22.83,5.28,1.28,9.19,1.35v11.27c-3.91.08-6.97.53-9.19,1.35-2.22.83-3.78,1.84-4.68,3.04-.9,1.2-1.35,2.44-1.35,3.72,0,2.33.11,4.38.34,6.14.23,1.77.43,3.57.62,5.41.19,1.84.28,4.08.28,6.71,0,6.16-1.67,10.45-5.02,12.85-3.34,2.4-8.7,3.61-16.07,3.61h-9.36Z"/>
  <path d="M796.88,286.22v77.68c0,3.16.39,5.3,1.17,6.43.78,1.13,2.13,1.69,4.06,1.69v2.37c-1.25-.07-3.11-.17-5.6-.28-2.49-.11-5.04-.17-7.65-.17s-5.26.06-7.93.17c-2.68.11-4.7.21-6.07.28v-2.37c1.93,0,3.28-.56,4.06-1.69.78-1.13,1.17-3.27,1.17-6.43v-64.15c0-3.38-.37-5.88-1.12-7.5-.75-1.62-2.12-2.42-4.11-2.42v-2.37c1.99.23,3.92.34,5.79.34,3.11,0,6.02-.13,8.73-.39,2.71-.26,5.21-.66,7.51-1.18Z"/>
  <path d="M884.82,549.48v-41.26h-21.42v-15.11h40.81v56.37h-19.39ZM893.84,485.45c-3.61,0-6.58-1.03-8.91-3.1-2.33-2.07-3.5-4.79-3.5-8.17s1.16-6.14,3.5-8.29c2.33-2.14,5.3-3.21,8.91-3.21s6.58,1.07,8.91,3.21c2.33,2.14,3.5,4.9,3.5,8.29s-1.17,6.11-3.5,8.17c-2.33,2.07-5.3,3.1-8.91,3.1Z"/>
  <path d="M989.14,887.26v18.26h9.15v2.25h-9.15v46.79c0,1.43.22,2.46.65,3.1.43.64,1.15.96,2.15.96.68,0,1.49-.24,2.43-.73.93-.49,1.8-1.33,2.61-2.54l1.4,1.35c-1.31,2.71-3.03,4.87-5.18,6.48-2.15,1.62-4.84,2.42-8.07,2.42-2.05,0-3.91-.32-5.55-.96-1.65-.64-3-1.6-4.06-2.88-1.37-1.65-2.24-3.7-2.61-6.14-.37-2.44-.56-5.62-.56-9.53v-38.33h-7.09v-2.25h7.09v-13.3c3.3,0,6.3-.4,9.01-1.18,2.71-.79,5.3-2.05,7.79-3.78Z"/>
</svg>