<svg xmlns="http://www.w3.org/2000/svg" viewBox="0 0 300 300"><defs><symbol id="prefix__logo" viewBox="0 0 300 300"><g id="prefix__grupo_logo" transform="translate(0 42.37)"><path id="prefix__logo_Q" d="M242.74 162.9c9.66-16.17 15.21-35.08 15.21-55.29 0-37.84-19.47-71.13-48.93-90.41a107.97 107.97 0 00-18.84-9.82A107.449 107.449 0 00166.19.86C163.71.49 160.63.2 158.1 0v215.26c2.73-.2 5.42-.5 8.09-.91 2.74-.41 5.44-.92 8.1-1.53a107.498 107.498 0 0043.48-21.18c5.03-4.06 9.68-8.55 13.9-13.44 8.89 7.8 18.42 14.88 28.51 21.15 14.1-.29 27.54-3.28 39.82-8.48-20.71-6.25-40-15.77-57.26-27.97zm-41.15 20.6c-5.3 3.61-11 6.68-17.01 9.13a90.216 90.216 0 01-10.29 3.49V98.03c10.68 25.93 26.27 49.33 45.6 69.03a91.792 91.792 0 01-18.3 16.44zm28.2-30.55c-23.88-19.97-43.02-45.4-55.5-74.39-3.09-7.17-5.77-14.56-8.01-22.14-.03.05-.06.09-.09.14v-.43a198.15 198.15 0 01-3.78-15c-1.72-8.12-2.94-16.41-3.63-24.86 2.37.24 5.19.61 7.41 1 2.75.49 5.45 1.1 8.1 1.83a90.458 90.458 0 0119.25 7.72c28.71 15.5 48.22 45.87 48.22 80.79 0 16.49-4.35 31.97-11.97 45.34z"/><path id="prefix__logo_A" d="M141.9 0c-2.73.2-5.42.5-8.09.91-2.74.41-5.44.92-8.1 1.53a107.498 107.498 0 00-43.48 21.18c-5.03 4.06-9.68 8.55-13.9 13.44-8.89-7.8-18.42-14.88-28.51-21.15-14.1.29-27.54 3.28-39.82 8.48 20.71 6.25 40 15.77 57.26 27.97-9.66 16.17-15.21 35.08-15.21 55.29 0 37.84 19.47 71.13 48.93 90.41a107.97 107.97 0 0018.84 9.82 107.449 107.449 0 0023.99 6.52c2.48.37 5.56.66 8.09.86v-16.2c-2.5-.24-5.65-.64-8.09-1.07-2.75-.49-5.45-1.1-8.1-1.83a90.458 90.458 0 01-19.25-7.72c-28.71-15.5-48.22-45.87-48.22-80.79 0-16.49 4.35-31.97 11.97-45.34 23.88 19.97 43.02 45.4 55.5 74.39 3.09 7.17 5.77 14.56 8.01 22.14.03-.05.06-.09.09-.14v.43c1.45 4.93 2.71 9.93 3.78 15 1.72 8.12 2.94 16.42 3.63 24.87l.68.06V0zm-16.19 117.23C115.03 91.3 99.44 67.9 80.11 48.2a91.792 91.792 0 0118.3-16.44c5.3-3.61 11-6.68 17.01-9.13 3.34-1.36 6.77-2.53 10.29-3.49v98.09z"/></g></symbol></defs></svg>